M48
; DRILL file {KiCad (5.1.4)-1} date 09.04.2020 16:08:44
; FORMAT={-:-/ absolute / inch / decimal}
; #@! TF.CreationDate,2020-04-09T16:08:44+02:00
; #@! TF.GenerationSoftware,Kicad,Pcbnew,(5.1.4)-1
; #@! TF.FileFunction,Plated,1,2,PTH
FMAT,2
INCH
T1C0.0157
T2C0.0276
T3C0.0315
T4C0.0394
T5C0.0598
%
G90
G05
T1
X5.2037Y-2.6737
X5.2687Y-2.7387
T2
X4.6091Y-3.1376
X4.6091Y-3.3376
X4.8091Y-3.1376
X4.8091Y-3.3376
T3
X4.6791Y-2.8276
X4.9791Y-2.8276
T4
X4.3541Y-2.1076
X4.3541Y-2.5476
X4.3737Y-2.8637
X4.6087Y-3.4187
X4.6791Y-2.7376
X4.8087Y-3.4237
X5.0787Y-2.9437
X5.3237Y-2.6887
X5.3691Y-2.9526
X5.8441Y-2.9976
X6.0541Y-3.0576
T5
X4.1341Y-2.1076
X4.1341Y-2.3076
X4.1341Y-2.5476
X4.1341Y-2.7476
T0
M30
