G04 #@! TF.GenerationSoftware,KiCad,Pcbnew,(5.1.4)-1*
G04 #@! TF.CreationDate,2020-04-09T16:08:48+02:00*
G04 #@! TF.ProjectId,PIN_NiklasNachbau,50494e5f-4e69-46b6-9c61-734e61636862,rev?*
G04 #@! TF.SameCoordinates,Original*
G04 #@! TF.FileFunction,Copper,L1,Top*
G04 #@! TF.FilePolarity,Positive*
%FSLAX46Y46*%
G04 Gerber Fmt 4.6, Leading zero omitted, Abs format (unit mm)*
G04 Created by KiCad (PCBNEW (5.1.4)-1) date 2020-04-09 16:08:48*
%MOMM*%
%LPD*%
G04 APERTURE LIST*
%ADD10C,0.100000*%
%ADD11C,0.600000*%
%ADD12R,4.000000X4.000000*%
%ADD13C,1.150000*%
%ADD14C,1.425000*%
%ADD15C,3.000000*%
%ADD16R,3.000000X3.000000*%
%ADD17O,1.600000X1.600000*%
%ADD18R,1.600000X1.600000*%
%ADD19C,1.400000*%
%ADD20O,1.400000X1.700000*%
%ADD21C,2.000000*%
%ADD22C,0.800000*%
%ADD23C,1.000000*%
%ADD24C,0.250000*%
G04 APERTURE END LIST*
D10*
G36*
X138195704Y-67923723D02*
G01*
X138210265Y-67925883D01*
X138224544Y-67929460D01*
X138238404Y-67934419D01*
X138251711Y-67940713D01*
X138264337Y-67948281D01*
X138276160Y-67957049D01*
X138287067Y-67966935D01*
X138296953Y-67977842D01*
X138305721Y-67989665D01*
X138313289Y-68002291D01*
X138319583Y-68015598D01*
X138324542Y-68029458D01*
X138328119Y-68043737D01*
X138330279Y-68058298D01*
X138331001Y-68073001D01*
X138331001Y-68373001D01*
X138330279Y-68387704D01*
X138328119Y-68402265D01*
X138324542Y-68416544D01*
X138319583Y-68430404D01*
X138313289Y-68443711D01*
X138305721Y-68456337D01*
X138296953Y-68468160D01*
X138287067Y-68479067D01*
X138276160Y-68488953D01*
X138264337Y-68497721D01*
X138251711Y-68505289D01*
X138238404Y-68511583D01*
X138224544Y-68516542D01*
X138210265Y-68520119D01*
X138195704Y-68522279D01*
X138181001Y-68523001D01*
X136881001Y-68523001D01*
X136866298Y-68522279D01*
X136851737Y-68520119D01*
X136837458Y-68516542D01*
X136823598Y-68511583D01*
X136810291Y-68505289D01*
X136797665Y-68497721D01*
X136785842Y-68488953D01*
X136774935Y-68479067D01*
X136765049Y-68468160D01*
X136756281Y-68456337D01*
X136748713Y-68443711D01*
X136742419Y-68430404D01*
X136737460Y-68416544D01*
X136733883Y-68402265D01*
X136731723Y-68387704D01*
X136731001Y-68373001D01*
X136731001Y-68073001D01*
X136731723Y-68058298D01*
X136733883Y-68043737D01*
X136737460Y-68029458D01*
X136742419Y-68015598D01*
X136748713Y-68002291D01*
X136756281Y-67989665D01*
X136765049Y-67977842D01*
X136774935Y-67966935D01*
X136785842Y-67957049D01*
X136797665Y-67948281D01*
X136810291Y-67940713D01*
X136823598Y-67934419D01*
X136837458Y-67929460D01*
X136851737Y-67925883D01*
X136866298Y-67923723D01*
X136881001Y-67923001D01*
X138181001Y-67923001D01*
X138195704Y-67923723D01*
X138195704Y-67923723D01*
G37*
D11*
X137531001Y-68223001D03*
D10*
G36*
X138195704Y-69193723D02*
G01*
X138210265Y-69195883D01*
X138224544Y-69199460D01*
X138238404Y-69204419D01*
X138251711Y-69210713D01*
X138264337Y-69218281D01*
X138276160Y-69227049D01*
X138287067Y-69236935D01*
X138296953Y-69247842D01*
X138305721Y-69259665D01*
X138313289Y-69272291D01*
X138319583Y-69285598D01*
X138324542Y-69299458D01*
X138328119Y-69313737D01*
X138330279Y-69328298D01*
X138331001Y-69343001D01*
X138331001Y-69643001D01*
X138330279Y-69657704D01*
X138328119Y-69672265D01*
X138324542Y-69686544D01*
X138319583Y-69700404D01*
X138313289Y-69713711D01*
X138305721Y-69726337D01*
X138296953Y-69738160D01*
X138287067Y-69749067D01*
X138276160Y-69758953D01*
X138264337Y-69767721D01*
X138251711Y-69775289D01*
X138238404Y-69781583D01*
X138224544Y-69786542D01*
X138210265Y-69790119D01*
X138195704Y-69792279D01*
X138181001Y-69793001D01*
X136881001Y-69793001D01*
X136866298Y-69792279D01*
X136851737Y-69790119D01*
X136837458Y-69786542D01*
X136823598Y-69781583D01*
X136810291Y-69775289D01*
X136797665Y-69767721D01*
X136785842Y-69758953D01*
X136774935Y-69749067D01*
X136765049Y-69738160D01*
X136756281Y-69726337D01*
X136748713Y-69713711D01*
X136742419Y-69700404D01*
X136737460Y-69686544D01*
X136733883Y-69672265D01*
X136731723Y-69657704D01*
X136731001Y-69643001D01*
X136731001Y-69343001D01*
X136731723Y-69328298D01*
X136733883Y-69313737D01*
X136737460Y-69299458D01*
X136742419Y-69285598D01*
X136748713Y-69272291D01*
X136756281Y-69259665D01*
X136765049Y-69247842D01*
X136774935Y-69236935D01*
X136785842Y-69227049D01*
X136797665Y-69218281D01*
X136810291Y-69210713D01*
X136823598Y-69204419D01*
X136837458Y-69199460D01*
X136851737Y-69195883D01*
X136866298Y-69193723D01*
X136881001Y-69193001D01*
X138181001Y-69193001D01*
X138195704Y-69193723D01*
X138195704Y-69193723D01*
G37*
D11*
X137531001Y-69493001D03*
D10*
G36*
X138195704Y-70463723D02*
G01*
X138210265Y-70465883D01*
X138224544Y-70469460D01*
X138238404Y-70474419D01*
X138251711Y-70480713D01*
X138264337Y-70488281D01*
X138276160Y-70497049D01*
X138287067Y-70506935D01*
X138296953Y-70517842D01*
X138305721Y-70529665D01*
X138313289Y-70542291D01*
X138319583Y-70555598D01*
X138324542Y-70569458D01*
X138328119Y-70583737D01*
X138330279Y-70598298D01*
X138331001Y-70613001D01*
X138331001Y-70913001D01*
X138330279Y-70927704D01*
X138328119Y-70942265D01*
X138324542Y-70956544D01*
X138319583Y-70970404D01*
X138313289Y-70983711D01*
X138305721Y-70996337D01*
X138296953Y-71008160D01*
X138287067Y-71019067D01*
X138276160Y-71028953D01*
X138264337Y-71037721D01*
X138251711Y-71045289D01*
X138238404Y-71051583D01*
X138224544Y-71056542D01*
X138210265Y-71060119D01*
X138195704Y-71062279D01*
X138181001Y-71063001D01*
X136881001Y-71063001D01*
X136866298Y-71062279D01*
X136851737Y-71060119D01*
X136837458Y-71056542D01*
X136823598Y-71051583D01*
X136810291Y-71045289D01*
X136797665Y-71037721D01*
X136785842Y-71028953D01*
X136774935Y-71019067D01*
X136765049Y-71008160D01*
X136756281Y-70996337D01*
X136748713Y-70983711D01*
X136742419Y-70970404D01*
X136737460Y-70956544D01*
X136733883Y-70942265D01*
X136731723Y-70927704D01*
X136731001Y-70913001D01*
X136731001Y-70613001D01*
X136731723Y-70598298D01*
X136733883Y-70583737D01*
X136737460Y-70569458D01*
X136742419Y-70555598D01*
X136748713Y-70542291D01*
X136756281Y-70529665D01*
X136765049Y-70517842D01*
X136774935Y-70506935D01*
X136785842Y-70497049D01*
X136797665Y-70488281D01*
X136810291Y-70480713D01*
X136823598Y-70474419D01*
X136837458Y-70469460D01*
X136851737Y-70465883D01*
X136866298Y-70463723D01*
X136881001Y-70463001D01*
X138181001Y-70463001D01*
X138195704Y-70463723D01*
X138195704Y-70463723D01*
G37*
D11*
X137531001Y-70763001D03*
D10*
G36*
X138195704Y-71733723D02*
G01*
X138210265Y-71735883D01*
X138224544Y-71739460D01*
X138238404Y-71744419D01*
X138251711Y-71750713D01*
X138264337Y-71758281D01*
X138276160Y-71767049D01*
X138287067Y-71776935D01*
X138296953Y-71787842D01*
X138305721Y-71799665D01*
X138313289Y-71812291D01*
X138319583Y-71825598D01*
X138324542Y-71839458D01*
X138328119Y-71853737D01*
X138330279Y-71868298D01*
X138331001Y-71883001D01*
X138331001Y-72183001D01*
X138330279Y-72197704D01*
X138328119Y-72212265D01*
X138324542Y-72226544D01*
X138319583Y-72240404D01*
X138313289Y-72253711D01*
X138305721Y-72266337D01*
X138296953Y-72278160D01*
X138287067Y-72289067D01*
X138276160Y-72298953D01*
X138264337Y-72307721D01*
X138251711Y-72315289D01*
X138238404Y-72321583D01*
X138224544Y-72326542D01*
X138210265Y-72330119D01*
X138195704Y-72332279D01*
X138181001Y-72333001D01*
X136881001Y-72333001D01*
X136866298Y-72332279D01*
X136851737Y-72330119D01*
X136837458Y-72326542D01*
X136823598Y-72321583D01*
X136810291Y-72315289D01*
X136797665Y-72307721D01*
X136785842Y-72298953D01*
X136774935Y-72289067D01*
X136765049Y-72278160D01*
X136756281Y-72266337D01*
X136748713Y-72253711D01*
X136742419Y-72240404D01*
X136737460Y-72226544D01*
X136733883Y-72212265D01*
X136731723Y-72197704D01*
X136731001Y-72183001D01*
X136731001Y-71883001D01*
X136731723Y-71868298D01*
X136733883Y-71853737D01*
X136737460Y-71839458D01*
X136742419Y-71825598D01*
X136748713Y-71812291D01*
X136756281Y-71799665D01*
X136765049Y-71787842D01*
X136774935Y-71776935D01*
X136785842Y-71767049D01*
X136797665Y-71758281D01*
X136810291Y-71750713D01*
X136823598Y-71744419D01*
X136837458Y-71739460D01*
X136851737Y-71735883D01*
X136866298Y-71733723D01*
X136881001Y-71733001D01*
X138181001Y-71733001D01*
X138195704Y-71733723D01*
X138195704Y-71733723D01*
G37*
D11*
X137531001Y-72033001D03*
D10*
G36*
X130995704Y-71733723D02*
G01*
X131010265Y-71735883D01*
X131024544Y-71739460D01*
X131038404Y-71744419D01*
X131051711Y-71750713D01*
X131064337Y-71758281D01*
X131076160Y-71767049D01*
X131087067Y-71776935D01*
X131096953Y-71787842D01*
X131105721Y-71799665D01*
X131113289Y-71812291D01*
X131119583Y-71825598D01*
X131124542Y-71839458D01*
X131128119Y-71853737D01*
X131130279Y-71868298D01*
X131131001Y-71883001D01*
X131131001Y-72183001D01*
X131130279Y-72197704D01*
X131128119Y-72212265D01*
X131124542Y-72226544D01*
X131119583Y-72240404D01*
X131113289Y-72253711D01*
X131105721Y-72266337D01*
X131096953Y-72278160D01*
X131087067Y-72289067D01*
X131076160Y-72298953D01*
X131064337Y-72307721D01*
X131051711Y-72315289D01*
X131038404Y-72321583D01*
X131024544Y-72326542D01*
X131010265Y-72330119D01*
X130995704Y-72332279D01*
X130981001Y-72333001D01*
X129681001Y-72333001D01*
X129666298Y-72332279D01*
X129651737Y-72330119D01*
X129637458Y-72326542D01*
X129623598Y-72321583D01*
X129610291Y-72315289D01*
X129597665Y-72307721D01*
X129585842Y-72298953D01*
X129574935Y-72289067D01*
X129565049Y-72278160D01*
X129556281Y-72266337D01*
X129548713Y-72253711D01*
X129542419Y-72240404D01*
X129537460Y-72226544D01*
X129533883Y-72212265D01*
X129531723Y-72197704D01*
X129531001Y-72183001D01*
X129531001Y-71883001D01*
X129531723Y-71868298D01*
X129533883Y-71853737D01*
X129537460Y-71839458D01*
X129542419Y-71825598D01*
X129548713Y-71812291D01*
X129556281Y-71799665D01*
X129565049Y-71787842D01*
X129574935Y-71776935D01*
X129585842Y-71767049D01*
X129597665Y-71758281D01*
X129610291Y-71750713D01*
X129623598Y-71744419D01*
X129637458Y-71739460D01*
X129651737Y-71735883D01*
X129666298Y-71733723D01*
X129681001Y-71733001D01*
X130981001Y-71733001D01*
X130995704Y-71733723D01*
X130995704Y-71733723D01*
G37*
D11*
X130331001Y-72033001D03*
D10*
G36*
X130995704Y-70463723D02*
G01*
X131010265Y-70465883D01*
X131024544Y-70469460D01*
X131038404Y-70474419D01*
X131051711Y-70480713D01*
X131064337Y-70488281D01*
X131076160Y-70497049D01*
X131087067Y-70506935D01*
X131096953Y-70517842D01*
X131105721Y-70529665D01*
X131113289Y-70542291D01*
X131119583Y-70555598D01*
X131124542Y-70569458D01*
X131128119Y-70583737D01*
X131130279Y-70598298D01*
X131131001Y-70613001D01*
X131131001Y-70913001D01*
X131130279Y-70927704D01*
X131128119Y-70942265D01*
X131124542Y-70956544D01*
X131119583Y-70970404D01*
X131113289Y-70983711D01*
X131105721Y-70996337D01*
X131096953Y-71008160D01*
X131087067Y-71019067D01*
X131076160Y-71028953D01*
X131064337Y-71037721D01*
X131051711Y-71045289D01*
X131038404Y-71051583D01*
X131024544Y-71056542D01*
X131010265Y-71060119D01*
X130995704Y-71062279D01*
X130981001Y-71063001D01*
X129681001Y-71063001D01*
X129666298Y-71062279D01*
X129651737Y-71060119D01*
X129637458Y-71056542D01*
X129623598Y-71051583D01*
X129610291Y-71045289D01*
X129597665Y-71037721D01*
X129585842Y-71028953D01*
X129574935Y-71019067D01*
X129565049Y-71008160D01*
X129556281Y-70996337D01*
X129548713Y-70983711D01*
X129542419Y-70970404D01*
X129537460Y-70956544D01*
X129533883Y-70942265D01*
X129531723Y-70927704D01*
X129531001Y-70913001D01*
X129531001Y-70613001D01*
X129531723Y-70598298D01*
X129533883Y-70583737D01*
X129537460Y-70569458D01*
X129542419Y-70555598D01*
X129548713Y-70542291D01*
X129556281Y-70529665D01*
X129565049Y-70517842D01*
X129574935Y-70506935D01*
X129585842Y-70497049D01*
X129597665Y-70488281D01*
X129610291Y-70480713D01*
X129623598Y-70474419D01*
X129637458Y-70469460D01*
X129651737Y-70465883D01*
X129666298Y-70463723D01*
X129681001Y-70463001D01*
X130981001Y-70463001D01*
X130995704Y-70463723D01*
X130995704Y-70463723D01*
G37*
D11*
X130331001Y-70763001D03*
D10*
G36*
X130995704Y-69193723D02*
G01*
X131010265Y-69195883D01*
X131024544Y-69199460D01*
X131038404Y-69204419D01*
X131051711Y-69210713D01*
X131064337Y-69218281D01*
X131076160Y-69227049D01*
X131087067Y-69236935D01*
X131096953Y-69247842D01*
X131105721Y-69259665D01*
X131113289Y-69272291D01*
X131119583Y-69285598D01*
X131124542Y-69299458D01*
X131128119Y-69313737D01*
X131130279Y-69328298D01*
X131131001Y-69343001D01*
X131131001Y-69643001D01*
X131130279Y-69657704D01*
X131128119Y-69672265D01*
X131124542Y-69686544D01*
X131119583Y-69700404D01*
X131113289Y-69713711D01*
X131105721Y-69726337D01*
X131096953Y-69738160D01*
X131087067Y-69749067D01*
X131076160Y-69758953D01*
X131064337Y-69767721D01*
X131051711Y-69775289D01*
X131038404Y-69781583D01*
X131024544Y-69786542D01*
X131010265Y-69790119D01*
X130995704Y-69792279D01*
X130981001Y-69793001D01*
X129681001Y-69793001D01*
X129666298Y-69792279D01*
X129651737Y-69790119D01*
X129637458Y-69786542D01*
X129623598Y-69781583D01*
X129610291Y-69775289D01*
X129597665Y-69767721D01*
X129585842Y-69758953D01*
X129574935Y-69749067D01*
X129565049Y-69738160D01*
X129556281Y-69726337D01*
X129548713Y-69713711D01*
X129542419Y-69700404D01*
X129537460Y-69686544D01*
X129533883Y-69672265D01*
X129531723Y-69657704D01*
X129531001Y-69643001D01*
X129531001Y-69343001D01*
X129531723Y-69328298D01*
X129533883Y-69313737D01*
X129537460Y-69299458D01*
X129542419Y-69285598D01*
X129548713Y-69272291D01*
X129556281Y-69259665D01*
X129565049Y-69247842D01*
X129574935Y-69236935D01*
X129585842Y-69227049D01*
X129597665Y-69218281D01*
X129610291Y-69210713D01*
X129623598Y-69204419D01*
X129637458Y-69199460D01*
X129651737Y-69195883D01*
X129666298Y-69193723D01*
X129681001Y-69193001D01*
X130981001Y-69193001D01*
X130995704Y-69193723D01*
X130995704Y-69193723D01*
G37*
D11*
X130331001Y-69493001D03*
D10*
G36*
X130995704Y-67923723D02*
G01*
X131010265Y-67925883D01*
X131024544Y-67929460D01*
X131038404Y-67934419D01*
X131051711Y-67940713D01*
X131064337Y-67948281D01*
X131076160Y-67957049D01*
X131087067Y-67966935D01*
X131096953Y-67977842D01*
X131105721Y-67989665D01*
X131113289Y-68002291D01*
X131119583Y-68015598D01*
X131124542Y-68029458D01*
X131128119Y-68043737D01*
X131130279Y-68058298D01*
X131131001Y-68073001D01*
X131131001Y-68373001D01*
X131130279Y-68387704D01*
X131128119Y-68402265D01*
X131124542Y-68416544D01*
X131119583Y-68430404D01*
X131113289Y-68443711D01*
X131105721Y-68456337D01*
X131096953Y-68468160D01*
X131087067Y-68479067D01*
X131076160Y-68488953D01*
X131064337Y-68497721D01*
X131051711Y-68505289D01*
X131038404Y-68511583D01*
X131024544Y-68516542D01*
X131010265Y-68520119D01*
X130995704Y-68522279D01*
X130981001Y-68523001D01*
X129681001Y-68523001D01*
X129666298Y-68522279D01*
X129651737Y-68520119D01*
X129637458Y-68516542D01*
X129623598Y-68511583D01*
X129610291Y-68505289D01*
X129597665Y-68497721D01*
X129585842Y-68488953D01*
X129574935Y-68479067D01*
X129565049Y-68468160D01*
X129556281Y-68456337D01*
X129548713Y-68443711D01*
X129542419Y-68430404D01*
X129537460Y-68416544D01*
X129533883Y-68402265D01*
X129531723Y-68387704D01*
X129531001Y-68373001D01*
X129531001Y-68073001D01*
X129531723Y-68058298D01*
X129533883Y-68043737D01*
X129537460Y-68029458D01*
X129542419Y-68015598D01*
X129548713Y-68002291D01*
X129556281Y-67989665D01*
X129565049Y-67977842D01*
X129574935Y-67966935D01*
X129585842Y-67957049D01*
X129597665Y-67948281D01*
X129610291Y-67940713D01*
X129623598Y-67934419D01*
X129637458Y-67929460D01*
X129651737Y-67925883D01*
X129666298Y-67923723D01*
X129681001Y-67923001D01*
X130981001Y-67923001D01*
X130995704Y-67923723D01*
X130995704Y-67923723D01*
G37*
D11*
X130331001Y-68223001D03*
D12*
X153774000Y-74107000D03*
X153774000Y-66487000D03*
D10*
G36*
X148787505Y-73424204D02*
G01*
X148811773Y-73427804D01*
X148835572Y-73433765D01*
X148858671Y-73442030D01*
X148880850Y-73452520D01*
X148901893Y-73465132D01*
X148921599Y-73479747D01*
X148939777Y-73496223D01*
X148956253Y-73514401D01*
X148970868Y-73534107D01*
X148983480Y-73555150D01*
X148993970Y-73577329D01*
X149002235Y-73600428D01*
X149008196Y-73624227D01*
X149011796Y-73648495D01*
X149013000Y-73672999D01*
X149013000Y-74323001D01*
X149011796Y-74347505D01*
X149008196Y-74371773D01*
X149002235Y-74395572D01*
X148993970Y-74418671D01*
X148983480Y-74440850D01*
X148970868Y-74461893D01*
X148956253Y-74481599D01*
X148939777Y-74499777D01*
X148921599Y-74516253D01*
X148901893Y-74530868D01*
X148880850Y-74543480D01*
X148858671Y-74553970D01*
X148835572Y-74562235D01*
X148811773Y-74568196D01*
X148787505Y-74571796D01*
X148763001Y-74573000D01*
X147862999Y-74573000D01*
X147838495Y-74571796D01*
X147814227Y-74568196D01*
X147790428Y-74562235D01*
X147767329Y-74553970D01*
X147745150Y-74543480D01*
X147724107Y-74530868D01*
X147704401Y-74516253D01*
X147686223Y-74499777D01*
X147669747Y-74481599D01*
X147655132Y-74461893D01*
X147642520Y-74440850D01*
X147632030Y-74418671D01*
X147623765Y-74395572D01*
X147617804Y-74371773D01*
X147614204Y-74347505D01*
X147613000Y-74323001D01*
X147613000Y-73672999D01*
X147614204Y-73648495D01*
X147617804Y-73624227D01*
X147623765Y-73600428D01*
X147632030Y-73577329D01*
X147642520Y-73555150D01*
X147655132Y-73534107D01*
X147669747Y-73514401D01*
X147686223Y-73496223D01*
X147704401Y-73479747D01*
X147724107Y-73465132D01*
X147745150Y-73452520D01*
X147767329Y-73442030D01*
X147790428Y-73433765D01*
X147814227Y-73427804D01*
X147838495Y-73424204D01*
X147862999Y-73423000D01*
X148763001Y-73423000D01*
X148787505Y-73424204D01*
X148787505Y-73424204D01*
G37*
D13*
X148313000Y-73998000D03*
D10*
G36*
X148787505Y-71374204D02*
G01*
X148811773Y-71377804D01*
X148835572Y-71383765D01*
X148858671Y-71392030D01*
X148880850Y-71402520D01*
X148901893Y-71415132D01*
X148921599Y-71429747D01*
X148939777Y-71446223D01*
X148956253Y-71464401D01*
X148970868Y-71484107D01*
X148983480Y-71505150D01*
X148993970Y-71527329D01*
X149002235Y-71550428D01*
X149008196Y-71574227D01*
X149011796Y-71598495D01*
X149013000Y-71622999D01*
X149013000Y-72273001D01*
X149011796Y-72297505D01*
X149008196Y-72321773D01*
X149002235Y-72345572D01*
X148993970Y-72368671D01*
X148983480Y-72390850D01*
X148970868Y-72411893D01*
X148956253Y-72431599D01*
X148939777Y-72449777D01*
X148921599Y-72466253D01*
X148901893Y-72480868D01*
X148880850Y-72493480D01*
X148858671Y-72503970D01*
X148835572Y-72512235D01*
X148811773Y-72518196D01*
X148787505Y-72521796D01*
X148763001Y-72523000D01*
X147862999Y-72523000D01*
X147838495Y-72521796D01*
X147814227Y-72518196D01*
X147790428Y-72512235D01*
X147767329Y-72503970D01*
X147745150Y-72493480D01*
X147724107Y-72480868D01*
X147704401Y-72466253D01*
X147686223Y-72449777D01*
X147669747Y-72431599D01*
X147655132Y-72411893D01*
X147642520Y-72390850D01*
X147632030Y-72368671D01*
X147623765Y-72345572D01*
X147617804Y-72321773D01*
X147614204Y-72297505D01*
X147613000Y-72273001D01*
X147613000Y-71622999D01*
X147614204Y-71598495D01*
X147617804Y-71574227D01*
X147623765Y-71550428D01*
X147632030Y-71527329D01*
X147642520Y-71505150D01*
X147655132Y-71484107D01*
X147669747Y-71464401D01*
X147686223Y-71446223D01*
X147704401Y-71429747D01*
X147724107Y-71415132D01*
X147745150Y-71402520D01*
X147767329Y-71392030D01*
X147790428Y-71383765D01*
X147814227Y-71377804D01*
X147838495Y-71374204D01*
X147862999Y-71373000D01*
X148763001Y-71373000D01*
X148787505Y-71374204D01*
X148787505Y-71374204D01*
G37*
D13*
X148313000Y-71948000D03*
D10*
G36*
X148777505Y-69252204D02*
G01*
X148801773Y-69255804D01*
X148825572Y-69261765D01*
X148848671Y-69270030D01*
X148870850Y-69280520D01*
X148891893Y-69293132D01*
X148911599Y-69307747D01*
X148929777Y-69324223D01*
X148946253Y-69342401D01*
X148960868Y-69362107D01*
X148973480Y-69383150D01*
X148983970Y-69405329D01*
X148992235Y-69428428D01*
X148998196Y-69452227D01*
X149001796Y-69476495D01*
X149003000Y-69500999D01*
X149003000Y-70151001D01*
X149001796Y-70175505D01*
X148998196Y-70199773D01*
X148992235Y-70223572D01*
X148983970Y-70246671D01*
X148973480Y-70268850D01*
X148960868Y-70289893D01*
X148946253Y-70309599D01*
X148929777Y-70327777D01*
X148911599Y-70344253D01*
X148891893Y-70358868D01*
X148870850Y-70371480D01*
X148848671Y-70381970D01*
X148825572Y-70390235D01*
X148801773Y-70396196D01*
X148777505Y-70399796D01*
X148753001Y-70401000D01*
X147852999Y-70401000D01*
X147828495Y-70399796D01*
X147804227Y-70396196D01*
X147780428Y-70390235D01*
X147757329Y-70381970D01*
X147735150Y-70371480D01*
X147714107Y-70358868D01*
X147694401Y-70344253D01*
X147676223Y-70327777D01*
X147659747Y-70309599D01*
X147645132Y-70289893D01*
X147632520Y-70268850D01*
X147622030Y-70246671D01*
X147613765Y-70223572D01*
X147607804Y-70199773D01*
X147604204Y-70175505D01*
X147603000Y-70151001D01*
X147603000Y-69500999D01*
X147604204Y-69476495D01*
X147607804Y-69452227D01*
X147613765Y-69428428D01*
X147622030Y-69405329D01*
X147632520Y-69383150D01*
X147645132Y-69362107D01*
X147659747Y-69342401D01*
X147676223Y-69324223D01*
X147694401Y-69307747D01*
X147714107Y-69293132D01*
X147735150Y-69280520D01*
X147757329Y-69270030D01*
X147780428Y-69261765D01*
X147804227Y-69255804D01*
X147828495Y-69252204D01*
X147852999Y-69251000D01*
X148753001Y-69251000D01*
X148777505Y-69252204D01*
X148777505Y-69252204D01*
G37*
D13*
X148303000Y-69826000D03*
D10*
G36*
X148777505Y-67202204D02*
G01*
X148801773Y-67205804D01*
X148825572Y-67211765D01*
X148848671Y-67220030D01*
X148870850Y-67230520D01*
X148891893Y-67243132D01*
X148911599Y-67257747D01*
X148929777Y-67274223D01*
X148946253Y-67292401D01*
X148960868Y-67312107D01*
X148973480Y-67333150D01*
X148983970Y-67355329D01*
X148992235Y-67378428D01*
X148998196Y-67402227D01*
X149001796Y-67426495D01*
X149003000Y-67450999D01*
X149003000Y-68101001D01*
X149001796Y-68125505D01*
X148998196Y-68149773D01*
X148992235Y-68173572D01*
X148983970Y-68196671D01*
X148973480Y-68218850D01*
X148960868Y-68239893D01*
X148946253Y-68259599D01*
X148929777Y-68277777D01*
X148911599Y-68294253D01*
X148891893Y-68308868D01*
X148870850Y-68321480D01*
X148848671Y-68331970D01*
X148825572Y-68340235D01*
X148801773Y-68346196D01*
X148777505Y-68349796D01*
X148753001Y-68351000D01*
X147852999Y-68351000D01*
X147828495Y-68349796D01*
X147804227Y-68346196D01*
X147780428Y-68340235D01*
X147757329Y-68331970D01*
X147735150Y-68321480D01*
X147714107Y-68308868D01*
X147694401Y-68294253D01*
X147676223Y-68277777D01*
X147659747Y-68259599D01*
X147645132Y-68239893D01*
X147632520Y-68218850D01*
X147622030Y-68196671D01*
X147613765Y-68173572D01*
X147607804Y-68149773D01*
X147604204Y-68125505D01*
X147603000Y-68101001D01*
X147603000Y-67450999D01*
X147604204Y-67426495D01*
X147607804Y-67402227D01*
X147613765Y-67378428D01*
X147622030Y-67355329D01*
X147632520Y-67333150D01*
X147645132Y-67312107D01*
X147659747Y-67292401D01*
X147676223Y-67274223D01*
X147694401Y-67257747D01*
X147714107Y-67243132D01*
X147735150Y-67230520D01*
X147757329Y-67220030D01*
X147780428Y-67211765D01*
X147804227Y-67205804D01*
X147828495Y-67202204D01*
X147852999Y-67201000D01*
X148753001Y-67201000D01*
X148777505Y-67202204D01*
X148777505Y-67202204D01*
G37*
D13*
X148303000Y-67776000D03*
D10*
G36*
X143120504Y-66955204D02*
G01*
X143144773Y-66958804D01*
X143168571Y-66964765D01*
X143191671Y-66973030D01*
X143213849Y-66983520D01*
X143234893Y-66996133D01*
X143254598Y-67010747D01*
X143272777Y-67027223D01*
X143289253Y-67045402D01*
X143303867Y-67065107D01*
X143316480Y-67086151D01*
X143326970Y-67108329D01*
X143335235Y-67131429D01*
X143341196Y-67155227D01*
X143344796Y-67179496D01*
X143346000Y-67204000D01*
X143346000Y-68129000D01*
X143344796Y-68153504D01*
X143341196Y-68177773D01*
X143335235Y-68201571D01*
X143326970Y-68224671D01*
X143316480Y-68246849D01*
X143303867Y-68267893D01*
X143289253Y-68287598D01*
X143272777Y-68305777D01*
X143254598Y-68322253D01*
X143234893Y-68336867D01*
X143213849Y-68349480D01*
X143191671Y-68359970D01*
X143168571Y-68368235D01*
X143144773Y-68374196D01*
X143120504Y-68377796D01*
X143096000Y-68379000D01*
X141846000Y-68379000D01*
X141821496Y-68377796D01*
X141797227Y-68374196D01*
X141773429Y-68368235D01*
X141750329Y-68359970D01*
X141728151Y-68349480D01*
X141707107Y-68336867D01*
X141687402Y-68322253D01*
X141669223Y-68305777D01*
X141652747Y-68287598D01*
X141638133Y-68267893D01*
X141625520Y-68246849D01*
X141615030Y-68224671D01*
X141606765Y-68201571D01*
X141600804Y-68177773D01*
X141597204Y-68153504D01*
X141596000Y-68129000D01*
X141596000Y-67204000D01*
X141597204Y-67179496D01*
X141600804Y-67155227D01*
X141606765Y-67131429D01*
X141615030Y-67108329D01*
X141625520Y-67086151D01*
X141638133Y-67065107D01*
X141652747Y-67045402D01*
X141669223Y-67027223D01*
X141687402Y-67010747D01*
X141707107Y-66996133D01*
X141728151Y-66983520D01*
X141750329Y-66973030D01*
X141773429Y-66964765D01*
X141797227Y-66958804D01*
X141821496Y-66955204D01*
X141846000Y-66954000D01*
X143096000Y-66954000D01*
X143120504Y-66955204D01*
X143120504Y-66955204D01*
G37*
D14*
X142471000Y-67666500D03*
D10*
G36*
X143120504Y-69930204D02*
G01*
X143144773Y-69933804D01*
X143168571Y-69939765D01*
X143191671Y-69948030D01*
X143213849Y-69958520D01*
X143234893Y-69971133D01*
X143254598Y-69985747D01*
X143272777Y-70002223D01*
X143289253Y-70020402D01*
X143303867Y-70040107D01*
X143316480Y-70061151D01*
X143326970Y-70083329D01*
X143335235Y-70106429D01*
X143341196Y-70130227D01*
X143344796Y-70154496D01*
X143346000Y-70179000D01*
X143346000Y-71104000D01*
X143344796Y-71128504D01*
X143341196Y-71152773D01*
X143335235Y-71176571D01*
X143326970Y-71199671D01*
X143316480Y-71221849D01*
X143303867Y-71242893D01*
X143289253Y-71262598D01*
X143272777Y-71280777D01*
X143254598Y-71297253D01*
X143234893Y-71311867D01*
X143213849Y-71324480D01*
X143191671Y-71334970D01*
X143168571Y-71343235D01*
X143144773Y-71349196D01*
X143120504Y-71352796D01*
X143096000Y-71354000D01*
X141846000Y-71354000D01*
X141821496Y-71352796D01*
X141797227Y-71349196D01*
X141773429Y-71343235D01*
X141750329Y-71334970D01*
X141728151Y-71324480D01*
X141707107Y-71311867D01*
X141687402Y-71297253D01*
X141669223Y-71280777D01*
X141652747Y-71262598D01*
X141638133Y-71242893D01*
X141625520Y-71221849D01*
X141615030Y-71199671D01*
X141606765Y-71176571D01*
X141600804Y-71152773D01*
X141597204Y-71128504D01*
X141596000Y-71104000D01*
X141596000Y-70179000D01*
X141597204Y-70154496D01*
X141600804Y-70130227D01*
X141606765Y-70106429D01*
X141615030Y-70083329D01*
X141625520Y-70061151D01*
X141638133Y-70040107D01*
X141652747Y-70020402D01*
X141669223Y-70002223D01*
X141687402Y-69985747D01*
X141707107Y-69971133D01*
X141728151Y-69958520D01*
X141750329Y-69948030D01*
X141773429Y-69939765D01*
X141797227Y-69933804D01*
X141821496Y-69930204D01*
X141846000Y-69929000D01*
X143096000Y-69929000D01*
X143120504Y-69930204D01*
X143120504Y-69930204D01*
G37*
D14*
X142471000Y-70641500D03*
D10*
G36*
X143210505Y-72900204D02*
G01*
X143234773Y-72903804D01*
X143258572Y-72909765D01*
X143281671Y-72918030D01*
X143303850Y-72928520D01*
X143324893Y-72941132D01*
X143344599Y-72955747D01*
X143362777Y-72972223D01*
X143379253Y-72990401D01*
X143393868Y-73010107D01*
X143406480Y-73031150D01*
X143416970Y-73053329D01*
X143425235Y-73076428D01*
X143431196Y-73100227D01*
X143434796Y-73124495D01*
X143436000Y-73148999D01*
X143436000Y-74049001D01*
X143434796Y-74073505D01*
X143431196Y-74097773D01*
X143425235Y-74121572D01*
X143416970Y-74144671D01*
X143406480Y-74166850D01*
X143393868Y-74187893D01*
X143379253Y-74207599D01*
X143362777Y-74225777D01*
X143344599Y-74242253D01*
X143324893Y-74256868D01*
X143303850Y-74269480D01*
X143281671Y-74279970D01*
X143258572Y-74288235D01*
X143234773Y-74294196D01*
X143210505Y-74297796D01*
X143186001Y-74299000D01*
X142535999Y-74299000D01*
X142511495Y-74297796D01*
X142487227Y-74294196D01*
X142463428Y-74288235D01*
X142440329Y-74279970D01*
X142418150Y-74269480D01*
X142397107Y-74256868D01*
X142377401Y-74242253D01*
X142359223Y-74225777D01*
X142342747Y-74207599D01*
X142328132Y-74187893D01*
X142315520Y-74166850D01*
X142305030Y-74144671D01*
X142296765Y-74121572D01*
X142290804Y-74097773D01*
X142287204Y-74073505D01*
X142286000Y-74049001D01*
X142286000Y-73148999D01*
X142287204Y-73124495D01*
X142290804Y-73100227D01*
X142296765Y-73076428D01*
X142305030Y-73053329D01*
X142315520Y-73031150D01*
X142328132Y-73010107D01*
X142342747Y-72990401D01*
X142359223Y-72972223D01*
X142377401Y-72955747D01*
X142397107Y-72941132D01*
X142418150Y-72928520D01*
X142440329Y-72918030D01*
X142463428Y-72909765D01*
X142487227Y-72903804D01*
X142511495Y-72900204D01*
X142535999Y-72899000D01*
X143186001Y-72899000D01*
X143210505Y-72900204D01*
X143210505Y-72900204D01*
G37*
D13*
X142861000Y-73599000D03*
D10*
G36*
X141160505Y-72900204D02*
G01*
X141184773Y-72903804D01*
X141208572Y-72909765D01*
X141231671Y-72918030D01*
X141253850Y-72928520D01*
X141274893Y-72941132D01*
X141294599Y-72955747D01*
X141312777Y-72972223D01*
X141329253Y-72990401D01*
X141343868Y-73010107D01*
X141356480Y-73031150D01*
X141366970Y-73053329D01*
X141375235Y-73076428D01*
X141381196Y-73100227D01*
X141384796Y-73124495D01*
X141386000Y-73148999D01*
X141386000Y-74049001D01*
X141384796Y-74073505D01*
X141381196Y-74097773D01*
X141375235Y-74121572D01*
X141366970Y-74144671D01*
X141356480Y-74166850D01*
X141343868Y-74187893D01*
X141329253Y-74207599D01*
X141312777Y-74225777D01*
X141294599Y-74242253D01*
X141274893Y-74256868D01*
X141253850Y-74269480D01*
X141231671Y-74279970D01*
X141208572Y-74288235D01*
X141184773Y-74294196D01*
X141160505Y-74297796D01*
X141136001Y-74299000D01*
X140485999Y-74299000D01*
X140461495Y-74297796D01*
X140437227Y-74294196D01*
X140413428Y-74288235D01*
X140390329Y-74279970D01*
X140368150Y-74269480D01*
X140347107Y-74256868D01*
X140327401Y-74242253D01*
X140309223Y-74225777D01*
X140292747Y-74207599D01*
X140278132Y-74187893D01*
X140265520Y-74166850D01*
X140255030Y-74144671D01*
X140246765Y-74121572D01*
X140240804Y-74097773D01*
X140237204Y-74073505D01*
X140236000Y-74049001D01*
X140236000Y-73148999D01*
X140237204Y-73124495D01*
X140240804Y-73100227D01*
X140246765Y-73076428D01*
X140255030Y-73053329D01*
X140265520Y-73031150D01*
X140278132Y-73010107D01*
X140292747Y-72990401D01*
X140309223Y-72972223D01*
X140327401Y-72955747D01*
X140347107Y-72941132D01*
X140368150Y-72928520D01*
X140390329Y-72918030D01*
X140413428Y-72909765D01*
X140437227Y-72903804D01*
X140461495Y-72900204D01*
X140485999Y-72899000D01*
X141136001Y-72899000D01*
X141160505Y-72900204D01*
X141160505Y-72900204D01*
G37*
D13*
X140811000Y-73599000D03*
D10*
G36*
X136724505Y-64645204D02*
G01*
X136748773Y-64648804D01*
X136772572Y-64654765D01*
X136795671Y-64663030D01*
X136817850Y-64673520D01*
X136838893Y-64686132D01*
X136858599Y-64700747D01*
X136876777Y-64717223D01*
X136893253Y-64735401D01*
X136907868Y-64755107D01*
X136920480Y-64776150D01*
X136930970Y-64798329D01*
X136939235Y-64821428D01*
X136945196Y-64845227D01*
X136948796Y-64869495D01*
X136950000Y-64893999D01*
X136950000Y-65794001D01*
X136948796Y-65818505D01*
X136945196Y-65842773D01*
X136939235Y-65866572D01*
X136930970Y-65889671D01*
X136920480Y-65911850D01*
X136907868Y-65932893D01*
X136893253Y-65952599D01*
X136876777Y-65970777D01*
X136858599Y-65987253D01*
X136838893Y-66001868D01*
X136817850Y-66014480D01*
X136795671Y-66024970D01*
X136772572Y-66033235D01*
X136748773Y-66039196D01*
X136724505Y-66042796D01*
X136700001Y-66044000D01*
X136049999Y-66044000D01*
X136025495Y-66042796D01*
X136001227Y-66039196D01*
X135977428Y-66033235D01*
X135954329Y-66024970D01*
X135932150Y-66014480D01*
X135911107Y-66001868D01*
X135891401Y-65987253D01*
X135873223Y-65970777D01*
X135856747Y-65952599D01*
X135842132Y-65932893D01*
X135829520Y-65911850D01*
X135819030Y-65889671D01*
X135810765Y-65866572D01*
X135804804Y-65842773D01*
X135801204Y-65818505D01*
X135800000Y-65794001D01*
X135800000Y-64893999D01*
X135801204Y-64869495D01*
X135804804Y-64845227D01*
X135810765Y-64821428D01*
X135819030Y-64798329D01*
X135829520Y-64776150D01*
X135842132Y-64755107D01*
X135856747Y-64735401D01*
X135873223Y-64717223D01*
X135891401Y-64700747D01*
X135911107Y-64686132D01*
X135932150Y-64673520D01*
X135954329Y-64663030D01*
X135977428Y-64654765D01*
X136001227Y-64648804D01*
X136025495Y-64645204D01*
X136049999Y-64644000D01*
X136700001Y-64644000D01*
X136724505Y-64645204D01*
X136724505Y-64645204D01*
G37*
D13*
X136375000Y-65344000D03*
D10*
G36*
X134674505Y-64645204D02*
G01*
X134698773Y-64648804D01*
X134722572Y-64654765D01*
X134745671Y-64663030D01*
X134767850Y-64673520D01*
X134788893Y-64686132D01*
X134808599Y-64700747D01*
X134826777Y-64717223D01*
X134843253Y-64735401D01*
X134857868Y-64755107D01*
X134870480Y-64776150D01*
X134880970Y-64798329D01*
X134889235Y-64821428D01*
X134895196Y-64845227D01*
X134898796Y-64869495D01*
X134900000Y-64893999D01*
X134900000Y-65794001D01*
X134898796Y-65818505D01*
X134895196Y-65842773D01*
X134889235Y-65866572D01*
X134880970Y-65889671D01*
X134870480Y-65911850D01*
X134857868Y-65932893D01*
X134843253Y-65952599D01*
X134826777Y-65970777D01*
X134808599Y-65987253D01*
X134788893Y-66001868D01*
X134767850Y-66014480D01*
X134745671Y-66024970D01*
X134722572Y-66033235D01*
X134698773Y-66039196D01*
X134674505Y-66042796D01*
X134650001Y-66044000D01*
X133999999Y-66044000D01*
X133975495Y-66042796D01*
X133951227Y-66039196D01*
X133927428Y-66033235D01*
X133904329Y-66024970D01*
X133882150Y-66014480D01*
X133861107Y-66001868D01*
X133841401Y-65987253D01*
X133823223Y-65970777D01*
X133806747Y-65952599D01*
X133792132Y-65932893D01*
X133779520Y-65911850D01*
X133769030Y-65889671D01*
X133760765Y-65866572D01*
X133754804Y-65842773D01*
X133751204Y-65818505D01*
X133750000Y-65794001D01*
X133750000Y-64893999D01*
X133751204Y-64869495D01*
X133754804Y-64845227D01*
X133760765Y-64821428D01*
X133769030Y-64798329D01*
X133779520Y-64776150D01*
X133792132Y-64755107D01*
X133806747Y-64735401D01*
X133823223Y-64717223D01*
X133841401Y-64700747D01*
X133861107Y-64686132D01*
X133882150Y-64673520D01*
X133904329Y-64663030D01*
X133927428Y-64654765D01*
X133951227Y-64648804D01*
X133975495Y-64645204D01*
X133999999Y-64644000D01*
X134650001Y-64644000D01*
X134674505Y-64645204D01*
X134674505Y-64645204D01*
G37*
D13*
X134325000Y-65344000D03*
D10*
G36*
X126308505Y-68598204D02*
G01*
X126332773Y-68601804D01*
X126356572Y-68607765D01*
X126379671Y-68616030D01*
X126401850Y-68626520D01*
X126422893Y-68639132D01*
X126442599Y-68653747D01*
X126460777Y-68670223D01*
X126477253Y-68688401D01*
X126491868Y-68708107D01*
X126504480Y-68729150D01*
X126514970Y-68751329D01*
X126523235Y-68774428D01*
X126529196Y-68798227D01*
X126532796Y-68822495D01*
X126534000Y-68846999D01*
X126534000Y-69497001D01*
X126532796Y-69521505D01*
X126529196Y-69545773D01*
X126523235Y-69569572D01*
X126514970Y-69592671D01*
X126504480Y-69614850D01*
X126491868Y-69635893D01*
X126477253Y-69655599D01*
X126460777Y-69673777D01*
X126442599Y-69690253D01*
X126422893Y-69704868D01*
X126401850Y-69717480D01*
X126379671Y-69727970D01*
X126356572Y-69736235D01*
X126332773Y-69742196D01*
X126308505Y-69745796D01*
X126284001Y-69747000D01*
X125383999Y-69747000D01*
X125359495Y-69745796D01*
X125335227Y-69742196D01*
X125311428Y-69736235D01*
X125288329Y-69727970D01*
X125266150Y-69717480D01*
X125245107Y-69704868D01*
X125225401Y-69690253D01*
X125207223Y-69673777D01*
X125190747Y-69655599D01*
X125176132Y-69635893D01*
X125163520Y-69614850D01*
X125153030Y-69592671D01*
X125144765Y-69569572D01*
X125138804Y-69545773D01*
X125135204Y-69521505D01*
X125134000Y-69497001D01*
X125134000Y-68846999D01*
X125135204Y-68822495D01*
X125138804Y-68798227D01*
X125144765Y-68774428D01*
X125153030Y-68751329D01*
X125163520Y-68729150D01*
X125176132Y-68708107D01*
X125190747Y-68688401D01*
X125207223Y-68670223D01*
X125225401Y-68653747D01*
X125245107Y-68639132D01*
X125266150Y-68626520D01*
X125288329Y-68616030D01*
X125311428Y-68607765D01*
X125335227Y-68601804D01*
X125359495Y-68598204D01*
X125383999Y-68597000D01*
X126284001Y-68597000D01*
X126308505Y-68598204D01*
X126308505Y-68598204D01*
G37*
D13*
X125834000Y-69172000D03*
D10*
G36*
X126308505Y-66548204D02*
G01*
X126332773Y-66551804D01*
X126356572Y-66557765D01*
X126379671Y-66566030D01*
X126401850Y-66576520D01*
X126422893Y-66589132D01*
X126442599Y-66603747D01*
X126460777Y-66620223D01*
X126477253Y-66638401D01*
X126491868Y-66658107D01*
X126504480Y-66679150D01*
X126514970Y-66701329D01*
X126523235Y-66724428D01*
X126529196Y-66748227D01*
X126532796Y-66772495D01*
X126534000Y-66796999D01*
X126534000Y-67447001D01*
X126532796Y-67471505D01*
X126529196Y-67495773D01*
X126523235Y-67519572D01*
X126514970Y-67542671D01*
X126504480Y-67564850D01*
X126491868Y-67585893D01*
X126477253Y-67605599D01*
X126460777Y-67623777D01*
X126442599Y-67640253D01*
X126422893Y-67654868D01*
X126401850Y-67667480D01*
X126379671Y-67677970D01*
X126356572Y-67686235D01*
X126332773Y-67692196D01*
X126308505Y-67695796D01*
X126284001Y-67697000D01*
X125383999Y-67697000D01*
X125359495Y-67695796D01*
X125335227Y-67692196D01*
X125311428Y-67686235D01*
X125288329Y-67677970D01*
X125266150Y-67667480D01*
X125245107Y-67654868D01*
X125225401Y-67640253D01*
X125207223Y-67623777D01*
X125190747Y-67605599D01*
X125176132Y-67585893D01*
X125163520Y-67564850D01*
X125153030Y-67542671D01*
X125144765Y-67519572D01*
X125138804Y-67495773D01*
X125135204Y-67471505D01*
X125134000Y-67447001D01*
X125134000Y-66796999D01*
X125135204Y-66772495D01*
X125138804Y-66748227D01*
X125144765Y-66724428D01*
X125153030Y-66701329D01*
X125163520Y-66679150D01*
X125176132Y-66658107D01*
X125190747Y-66638401D01*
X125207223Y-66620223D01*
X125225401Y-66603747D01*
X125245107Y-66589132D01*
X125266150Y-66576520D01*
X125288329Y-66566030D01*
X125311428Y-66557765D01*
X125335227Y-66551804D01*
X125359495Y-66548204D01*
X125383999Y-66547000D01*
X126284001Y-66547000D01*
X126308505Y-66548204D01*
X126308505Y-66548204D01*
G37*
D13*
X125834000Y-67122000D03*
D10*
G36*
X138881505Y-65033204D02*
G01*
X138905773Y-65036804D01*
X138929572Y-65042765D01*
X138952671Y-65051030D01*
X138974850Y-65061520D01*
X138995893Y-65074132D01*
X139015599Y-65088747D01*
X139033777Y-65105223D01*
X139050253Y-65123401D01*
X139064868Y-65143107D01*
X139077480Y-65164150D01*
X139087970Y-65186329D01*
X139096235Y-65209428D01*
X139102196Y-65233227D01*
X139105796Y-65257495D01*
X139107000Y-65281999D01*
X139107000Y-65932001D01*
X139105796Y-65956505D01*
X139102196Y-65980773D01*
X139096235Y-66004572D01*
X139087970Y-66027671D01*
X139077480Y-66049850D01*
X139064868Y-66070893D01*
X139050253Y-66090599D01*
X139033777Y-66108777D01*
X139015599Y-66125253D01*
X138995893Y-66139868D01*
X138974850Y-66152480D01*
X138952671Y-66162970D01*
X138929572Y-66171235D01*
X138905773Y-66177196D01*
X138881505Y-66180796D01*
X138857001Y-66182000D01*
X137956999Y-66182000D01*
X137932495Y-66180796D01*
X137908227Y-66177196D01*
X137884428Y-66171235D01*
X137861329Y-66162970D01*
X137839150Y-66152480D01*
X137818107Y-66139868D01*
X137798401Y-66125253D01*
X137780223Y-66108777D01*
X137763747Y-66090599D01*
X137749132Y-66070893D01*
X137736520Y-66049850D01*
X137726030Y-66027671D01*
X137717765Y-66004572D01*
X137711804Y-65980773D01*
X137708204Y-65956505D01*
X137707000Y-65932001D01*
X137707000Y-65281999D01*
X137708204Y-65257495D01*
X137711804Y-65233227D01*
X137717765Y-65209428D01*
X137726030Y-65186329D01*
X137736520Y-65164150D01*
X137749132Y-65143107D01*
X137763747Y-65123401D01*
X137780223Y-65105223D01*
X137798401Y-65088747D01*
X137818107Y-65074132D01*
X137839150Y-65061520D01*
X137861329Y-65051030D01*
X137884428Y-65042765D01*
X137908227Y-65036804D01*
X137932495Y-65033204D01*
X137956999Y-65032000D01*
X138857001Y-65032000D01*
X138881505Y-65033204D01*
X138881505Y-65033204D01*
G37*
D13*
X138407000Y-65607000D03*
D10*
G36*
X138881505Y-62983204D02*
G01*
X138905773Y-62986804D01*
X138929572Y-62992765D01*
X138952671Y-63001030D01*
X138974850Y-63011520D01*
X138995893Y-63024132D01*
X139015599Y-63038747D01*
X139033777Y-63055223D01*
X139050253Y-63073401D01*
X139064868Y-63093107D01*
X139077480Y-63114150D01*
X139087970Y-63136329D01*
X139096235Y-63159428D01*
X139102196Y-63183227D01*
X139105796Y-63207495D01*
X139107000Y-63231999D01*
X139107000Y-63882001D01*
X139105796Y-63906505D01*
X139102196Y-63930773D01*
X139096235Y-63954572D01*
X139087970Y-63977671D01*
X139077480Y-63999850D01*
X139064868Y-64020893D01*
X139050253Y-64040599D01*
X139033777Y-64058777D01*
X139015599Y-64075253D01*
X138995893Y-64089868D01*
X138974850Y-64102480D01*
X138952671Y-64112970D01*
X138929572Y-64121235D01*
X138905773Y-64127196D01*
X138881505Y-64130796D01*
X138857001Y-64132000D01*
X137956999Y-64132000D01*
X137932495Y-64130796D01*
X137908227Y-64127196D01*
X137884428Y-64121235D01*
X137861329Y-64112970D01*
X137839150Y-64102480D01*
X137818107Y-64089868D01*
X137798401Y-64075253D01*
X137780223Y-64058777D01*
X137763747Y-64040599D01*
X137749132Y-64020893D01*
X137736520Y-63999850D01*
X137726030Y-63977671D01*
X137717765Y-63954572D01*
X137711804Y-63930773D01*
X137708204Y-63906505D01*
X137707000Y-63882001D01*
X137707000Y-63231999D01*
X137708204Y-63207495D01*
X137711804Y-63183227D01*
X137717765Y-63159428D01*
X137726030Y-63136329D01*
X137736520Y-63114150D01*
X137749132Y-63093107D01*
X137763747Y-63073401D01*
X137780223Y-63055223D01*
X137798401Y-63038747D01*
X137818107Y-63024132D01*
X137839150Y-63011520D01*
X137861329Y-63001030D01*
X137884428Y-62992765D01*
X137908227Y-62986804D01*
X137932495Y-62983204D01*
X137956999Y-62982000D01*
X138857001Y-62982000D01*
X138881505Y-62983204D01*
X138881505Y-62983204D01*
G37*
D13*
X138407000Y-63557000D03*
D10*
G36*
X113501505Y-78742204D02*
G01*
X113525773Y-78745804D01*
X113549572Y-78751765D01*
X113572671Y-78760030D01*
X113594850Y-78770520D01*
X113615893Y-78783132D01*
X113635599Y-78797747D01*
X113653777Y-78814223D01*
X113670253Y-78832401D01*
X113684868Y-78852107D01*
X113697480Y-78873150D01*
X113707970Y-78895329D01*
X113716235Y-78918428D01*
X113722196Y-78942227D01*
X113725796Y-78966495D01*
X113727000Y-78990999D01*
X113727000Y-79891001D01*
X113725796Y-79915505D01*
X113722196Y-79939773D01*
X113716235Y-79963572D01*
X113707970Y-79986671D01*
X113697480Y-80008850D01*
X113684868Y-80029893D01*
X113670253Y-80049599D01*
X113653777Y-80067777D01*
X113635599Y-80084253D01*
X113615893Y-80098868D01*
X113594850Y-80111480D01*
X113572671Y-80121970D01*
X113549572Y-80130235D01*
X113525773Y-80136196D01*
X113501505Y-80139796D01*
X113477001Y-80141000D01*
X112826999Y-80141000D01*
X112802495Y-80139796D01*
X112778227Y-80136196D01*
X112754428Y-80130235D01*
X112731329Y-80121970D01*
X112709150Y-80111480D01*
X112688107Y-80098868D01*
X112668401Y-80084253D01*
X112650223Y-80067777D01*
X112633747Y-80049599D01*
X112619132Y-80029893D01*
X112606520Y-80008850D01*
X112596030Y-79986671D01*
X112587765Y-79963572D01*
X112581804Y-79939773D01*
X112578204Y-79915505D01*
X112577000Y-79891001D01*
X112577000Y-78990999D01*
X112578204Y-78966495D01*
X112581804Y-78942227D01*
X112587765Y-78918428D01*
X112596030Y-78895329D01*
X112606520Y-78873150D01*
X112619132Y-78852107D01*
X112633747Y-78832401D01*
X112650223Y-78814223D01*
X112668401Y-78797747D01*
X112688107Y-78783132D01*
X112709150Y-78770520D01*
X112731329Y-78760030D01*
X112754428Y-78751765D01*
X112778227Y-78745804D01*
X112802495Y-78742204D01*
X112826999Y-78741000D01*
X113477001Y-78741000D01*
X113501505Y-78742204D01*
X113501505Y-78742204D01*
G37*
D13*
X113152000Y-79441000D03*
D10*
G36*
X111451505Y-78742204D02*
G01*
X111475773Y-78745804D01*
X111499572Y-78751765D01*
X111522671Y-78760030D01*
X111544850Y-78770520D01*
X111565893Y-78783132D01*
X111585599Y-78797747D01*
X111603777Y-78814223D01*
X111620253Y-78832401D01*
X111634868Y-78852107D01*
X111647480Y-78873150D01*
X111657970Y-78895329D01*
X111666235Y-78918428D01*
X111672196Y-78942227D01*
X111675796Y-78966495D01*
X111677000Y-78990999D01*
X111677000Y-79891001D01*
X111675796Y-79915505D01*
X111672196Y-79939773D01*
X111666235Y-79963572D01*
X111657970Y-79986671D01*
X111647480Y-80008850D01*
X111634868Y-80029893D01*
X111620253Y-80049599D01*
X111603777Y-80067777D01*
X111585599Y-80084253D01*
X111565893Y-80098868D01*
X111544850Y-80111480D01*
X111522671Y-80121970D01*
X111499572Y-80130235D01*
X111475773Y-80136196D01*
X111451505Y-80139796D01*
X111427001Y-80141000D01*
X110776999Y-80141000D01*
X110752495Y-80139796D01*
X110728227Y-80136196D01*
X110704428Y-80130235D01*
X110681329Y-80121970D01*
X110659150Y-80111480D01*
X110638107Y-80098868D01*
X110618401Y-80084253D01*
X110600223Y-80067777D01*
X110583747Y-80049599D01*
X110569132Y-80029893D01*
X110556520Y-80008850D01*
X110546030Y-79986671D01*
X110537765Y-79963572D01*
X110531804Y-79939773D01*
X110528204Y-79915505D01*
X110527000Y-79891001D01*
X110527000Y-78990999D01*
X110528204Y-78966495D01*
X110531804Y-78942227D01*
X110537765Y-78918428D01*
X110546030Y-78895329D01*
X110556520Y-78873150D01*
X110569132Y-78852107D01*
X110583747Y-78832401D01*
X110600223Y-78814223D01*
X110618401Y-78797747D01*
X110638107Y-78783132D01*
X110659150Y-78770520D01*
X110681329Y-78760030D01*
X110704428Y-78751765D01*
X110728227Y-78745804D01*
X110752495Y-78742204D01*
X110776999Y-78741000D01*
X111427001Y-78741000D01*
X111451505Y-78742204D01*
X111451505Y-78742204D01*
G37*
D13*
X111102000Y-79441000D03*
D10*
G36*
X108504504Y-78567204D02*
G01*
X108528773Y-78570804D01*
X108552571Y-78576765D01*
X108575671Y-78585030D01*
X108597849Y-78595520D01*
X108618893Y-78608133D01*
X108638598Y-78622747D01*
X108656777Y-78639223D01*
X108673253Y-78657402D01*
X108687867Y-78677107D01*
X108700480Y-78698151D01*
X108710970Y-78720329D01*
X108719235Y-78743429D01*
X108725196Y-78767227D01*
X108728796Y-78791496D01*
X108730000Y-78816000D01*
X108730000Y-80066000D01*
X108728796Y-80090504D01*
X108725196Y-80114773D01*
X108719235Y-80138571D01*
X108710970Y-80161671D01*
X108700480Y-80183849D01*
X108687867Y-80204893D01*
X108673253Y-80224598D01*
X108656777Y-80242777D01*
X108638598Y-80259253D01*
X108618893Y-80273867D01*
X108597849Y-80286480D01*
X108575671Y-80296970D01*
X108552571Y-80305235D01*
X108528773Y-80311196D01*
X108504504Y-80314796D01*
X108480000Y-80316000D01*
X107555000Y-80316000D01*
X107530496Y-80314796D01*
X107506227Y-80311196D01*
X107482429Y-80305235D01*
X107459329Y-80296970D01*
X107437151Y-80286480D01*
X107416107Y-80273867D01*
X107396402Y-80259253D01*
X107378223Y-80242777D01*
X107361747Y-80224598D01*
X107347133Y-80204893D01*
X107334520Y-80183849D01*
X107324030Y-80161671D01*
X107315765Y-80138571D01*
X107309804Y-80114773D01*
X107306204Y-80090504D01*
X107305000Y-80066000D01*
X107305000Y-78816000D01*
X107306204Y-78791496D01*
X107309804Y-78767227D01*
X107315765Y-78743429D01*
X107324030Y-78720329D01*
X107334520Y-78698151D01*
X107347133Y-78677107D01*
X107361747Y-78657402D01*
X107378223Y-78639223D01*
X107396402Y-78622747D01*
X107416107Y-78608133D01*
X107437151Y-78595520D01*
X107459329Y-78585030D01*
X107482429Y-78576765D01*
X107506227Y-78570804D01*
X107530496Y-78567204D01*
X107555000Y-78566000D01*
X108480000Y-78566000D01*
X108504504Y-78567204D01*
X108504504Y-78567204D01*
G37*
D14*
X108017500Y-79441000D03*
D10*
G36*
X105529504Y-78567204D02*
G01*
X105553773Y-78570804D01*
X105577571Y-78576765D01*
X105600671Y-78585030D01*
X105622849Y-78595520D01*
X105643893Y-78608133D01*
X105663598Y-78622747D01*
X105681777Y-78639223D01*
X105698253Y-78657402D01*
X105712867Y-78677107D01*
X105725480Y-78698151D01*
X105735970Y-78720329D01*
X105744235Y-78743429D01*
X105750196Y-78767227D01*
X105753796Y-78791496D01*
X105755000Y-78816000D01*
X105755000Y-80066000D01*
X105753796Y-80090504D01*
X105750196Y-80114773D01*
X105744235Y-80138571D01*
X105735970Y-80161671D01*
X105725480Y-80183849D01*
X105712867Y-80204893D01*
X105698253Y-80224598D01*
X105681777Y-80242777D01*
X105663598Y-80259253D01*
X105643893Y-80273867D01*
X105622849Y-80286480D01*
X105600671Y-80296970D01*
X105577571Y-80305235D01*
X105553773Y-80311196D01*
X105529504Y-80314796D01*
X105505000Y-80316000D01*
X104580000Y-80316000D01*
X104555496Y-80314796D01*
X104531227Y-80311196D01*
X104507429Y-80305235D01*
X104484329Y-80296970D01*
X104462151Y-80286480D01*
X104441107Y-80273867D01*
X104421402Y-80259253D01*
X104403223Y-80242777D01*
X104386747Y-80224598D01*
X104372133Y-80204893D01*
X104359520Y-80183849D01*
X104349030Y-80161671D01*
X104340765Y-80138571D01*
X104334804Y-80114773D01*
X104331204Y-80090504D01*
X104330000Y-80066000D01*
X104330000Y-78816000D01*
X104331204Y-78791496D01*
X104334804Y-78767227D01*
X104340765Y-78743429D01*
X104349030Y-78720329D01*
X104359520Y-78698151D01*
X104372133Y-78677107D01*
X104386747Y-78657402D01*
X104403223Y-78639223D01*
X104421402Y-78622747D01*
X104441107Y-78608133D01*
X104462151Y-78595520D01*
X104484329Y-78585030D01*
X104507429Y-78576765D01*
X104531227Y-78570804D01*
X104555496Y-78567204D01*
X104580000Y-78566000D01*
X105505000Y-78566000D01*
X105529504Y-78567204D01*
X105529504Y-78567204D01*
G37*
D14*
X105042500Y-79441000D03*
D15*
X105006000Y-53533000D03*
D16*
X105006000Y-58613000D03*
D15*
X105006000Y-64709000D03*
D16*
X105006000Y-69789000D03*
D17*
X126469000Y-71821000D03*
D18*
X118849000Y-71821000D03*
D10*
G36*
X117546226Y-78846200D02*
G01*
X117570417Y-78849788D01*
X117594139Y-78855730D01*
X117617165Y-78863969D01*
X117639272Y-78874425D01*
X117660248Y-78886998D01*
X117679891Y-78901566D01*
X117698011Y-78917989D01*
X117714434Y-78936109D01*
X117729002Y-78955752D01*
X117741575Y-78976728D01*
X117752031Y-78998835D01*
X117760270Y-79021861D01*
X117766212Y-79045583D01*
X117769800Y-79069774D01*
X117771000Y-79094200D01*
X117771000Y-80295800D01*
X117769800Y-80320226D01*
X117766212Y-80344417D01*
X117760270Y-80368139D01*
X117752031Y-80391165D01*
X117741575Y-80413272D01*
X117729002Y-80434248D01*
X117714434Y-80453891D01*
X117698011Y-80472011D01*
X117679891Y-80488434D01*
X117660248Y-80503002D01*
X117639272Y-80515575D01*
X117617165Y-80526031D01*
X117594139Y-80534270D01*
X117570417Y-80540212D01*
X117546226Y-80543800D01*
X117521800Y-80545000D01*
X116620200Y-80545000D01*
X116595774Y-80543800D01*
X116571583Y-80540212D01*
X116547861Y-80534270D01*
X116524835Y-80526031D01*
X116502728Y-80515575D01*
X116481752Y-80503002D01*
X116462109Y-80488434D01*
X116443989Y-80472011D01*
X116427566Y-80453891D01*
X116412998Y-80434248D01*
X116400425Y-80413272D01*
X116389969Y-80391165D01*
X116381730Y-80368139D01*
X116375788Y-80344417D01*
X116372200Y-80320226D01*
X116371000Y-80295800D01*
X116371000Y-79094200D01*
X116372200Y-79069774D01*
X116375788Y-79045583D01*
X116381730Y-79021861D01*
X116389969Y-78998835D01*
X116400425Y-78976728D01*
X116412998Y-78955752D01*
X116427566Y-78936109D01*
X116443989Y-78917989D01*
X116462109Y-78901566D01*
X116481752Y-78886998D01*
X116502728Y-78874425D01*
X116524835Y-78863969D01*
X116547861Y-78855730D01*
X116571583Y-78849788D01*
X116595774Y-78846200D01*
X116620200Y-78845000D01*
X117521800Y-78845000D01*
X117546226Y-78846200D01*
X117546226Y-78846200D01*
G37*
D19*
X117071000Y-79695000D03*
D20*
X117071000Y-84775000D03*
D10*
G36*
X122626226Y-78846200D02*
G01*
X122650417Y-78849788D01*
X122674139Y-78855730D01*
X122697165Y-78863969D01*
X122719272Y-78874425D01*
X122740248Y-78886998D01*
X122759891Y-78901566D01*
X122778011Y-78917989D01*
X122794434Y-78936109D01*
X122809002Y-78955752D01*
X122821575Y-78976728D01*
X122832031Y-78998835D01*
X122840270Y-79021861D01*
X122846212Y-79045583D01*
X122849800Y-79069774D01*
X122851000Y-79094200D01*
X122851000Y-80295800D01*
X122849800Y-80320226D01*
X122846212Y-80344417D01*
X122840270Y-80368139D01*
X122832031Y-80391165D01*
X122821575Y-80413272D01*
X122809002Y-80434248D01*
X122794434Y-80453891D01*
X122778011Y-80472011D01*
X122759891Y-80488434D01*
X122740248Y-80503002D01*
X122719272Y-80515575D01*
X122697165Y-80526031D01*
X122674139Y-80534270D01*
X122650417Y-80540212D01*
X122626226Y-80543800D01*
X122601800Y-80545000D01*
X121700200Y-80545000D01*
X121675774Y-80543800D01*
X121651583Y-80540212D01*
X121627861Y-80534270D01*
X121604835Y-80526031D01*
X121582728Y-80515575D01*
X121561752Y-80503002D01*
X121542109Y-80488434D01*
X121523989Y-80472011D01*
X121507566Y-80453891D01*
X121492998Y-80434248D01*
X121480425Y-80413272D01*
X121469969Y-80391165D01*
X121461730Y-80368139D01*
X121455788Y-80344417D01*
X121452200Y-80320226D01*
X121451000Y-80295800D01*
X121451000Y-79094200D01*
X121452200Y-79069774D01*
X121455788Y-79045583D01*
X121461730Y-79021861D01*
X121469969Y-78998835D01*
X121480425Y-78976728D01*
X121492998Y-78955752D01*
X121507566Y-78936109D01*
X121523989Y-78917989D01*
X121542109Y-78901566D01*
X121561752Y-78886998D01*
X121582728Y-78874425D01*
X121604835Y-78863969D01*
X121627861Y-78855730D01*
X121651583Y-78849788D01*
X121675774Y-78846200D01*
X121700200Y-78845000D01*
X122601800Y-78845000D01*
X122626226Y-78846200D01*
X122626226Y-78846200D01*
G37*
D19*
X122151000Y-79695000D03*
D20*
X122151000Y-84775000D03*
D10*
G36*
X130737505Y-64645204D02*
G01*
X130761773Y-64648804D01*
X130785572Y-64654765D01*
X130808671Y-64663030D01*
X130830850Y-64673520D01*
X130851893Y-64686132D01*
X130871599Y-64700747D01*
X130889777Y-64717223D01*
X130906253Y-64735401D01*
X130920868Y-64755107D01*
X130933480Y-64776150D01*
X130943970Y-64798329D01*
X130952235Y-64821428D01*
X130958196Y-64845227D01*
X130961796Y-64869495D01*
X130963000Y-64893999D01*
X130963000Y-65794001D01*
X130961796Y-65818505D01*
X130958196Y-65842773D01*
X130952235Y-65866572D01*
X130943970Y-65889671D01*
X130933480Y-65911850D01*
X130920868Y-65932893D01*
X130906253Y-65952599D01*
X130889777Y-65970777D01*
X130871599Y-65987253D01*
X130851893Y-66001868D01*
X130830850Y-66014480D01*
X130808671Y-66024970D01*
X130785572Y-66033235D01*
X130761773Y-66039196D01*
X130737505Y-66042796D01*
X130713001Y-66044000D01*
X130062999Y-66044000D01*
X130038495Y-66042796D01*
X130014227Y-66039196D01*
X129990428Y-66033235D01*
X129967329Y-66024970D01*
X129945150Y-66014480D01*
X129924107Y-66001868D01*
X129904401Y-65987253D01*
X129886223Y-65970777D01*
X129869747Y-65952599D01*
X129855132Y-65932893D01*
X129842520Y-65911850D01*
X129832030Y-65889671D01*
X129823765Y-65866572D01*
X129817804Y-65842773D01*
X129814204Y-65818505D01*
X129813000Y-65794001D01*
X129813000Y-64893999D01*
X129814204Y-64869495D01*
X129817804Y-64845227D01*
X129823765Y-64821428D01*
X129832030Y-64798329D01*
X129842520Y-64776150D01*
X129855132Y-64755107D01*
X129869747Y-64735401D01*
X129886223Y-64717223D01*
X129904401Y-64700747D01*
X129924107Y-64686132D01*
X129945150Y-64673520D01*
X129967329Y-64663030D01*
X129990428Y-64654765D01*
X130014227Y-64648804D01*
X130038495Y-64645204D01*
X130062999Y-64644000D01*
X130713001Y-64644000D01*
X130737505Y-64645204D01*
X130737505Y-64645204D01*
G37*
D13*
X130388000Y-65344000D03*
D10*
G36*
X132787505Y-64645204D02*
G01*
X132811773Y-64648804D01*
X132835572Y-64654765D01*
X132858671Y-64663030D01*
X132880850Y-64673520D01*
X132901893Y-64686132D01*
X132921599Y-64700747D01*
X132939777Y-64717223D01*
X132956253Y-64735401D01*
X132970868Y-64755107D01*
X132983480Y-64776150D01*
X132993970Y-64798329D01*
X133002235Y-64821428D01*
X133008196Y-64845227D01*
X133011796Y-64869495D01*
X133013000Y-64893999D01*
X133013000Y-65794001D01*
X133011796Y-65818505D01*
X133008196Y-65842773D01*
X133002235Y-65866572D01*
X132993970Y-65889671D01*
X132983480Y-65911850D01*
X132970868Y-65932893D01*
X132956253Y-65952599D01*
X132939777Y-65970777D01*
X132921599Y-65987253D01*
X132901893Y-66001868D01*
X132880850Y-66014480D01*
X132858671Y-66024970D01*
X132835572Y-66033235D01*
X132811773Y-66039196D01*
X132787505Y-66042796D01*
X132763001Y-66044000D01*
X132112999Y-66044000D01*
X132088495Y-66042796D01*
X132064227Y-66039196D01*
X132040428Y-66033235D01*
X132017329Y-66024970D01*
X131995150Y-66014480D01*
X131974107Y-66001868D01*
X131954401Y-65987253D01*
X131936223Y-65970777D01*
X131919747Y-65952599D01*
X131905132Y-65932893D01*
X131892520Y-65911850D01*
X131882030Y-65889671D01*
X131873765Y-65866572D01*
X131867804Y-65842773D01*
X131864204Y-65818505D01*
X131863000Y-65794001D01*
X131863000Y-64893999D01*
X131864204Y-64869495D01*
X131867804Y-64845227D01*
X131873765Y-64821428D01*
X131882030Y-64798329D01*
X131892520Y-64776150D01*
X131905132Y-64755107D01*
X131919747Y-64735401D01*
X131936223Y-64717223D01*
X131954401Y-64700747D01*
X131974107Y-64686132D01*
X131995150Y-64673520D01*
X132017329Y-64663030D01*
X132040428Y-64654765D01*
X132064227Y-64648804D01*
X132088495Y-64645204D01*
X132112999Y-64644000D01*
X132763001Y-64644000D01*
X132787505Y-64645204D01*
X132787505Y-64645204D01*
G37*
D13*
X132438000Y-65344000D03*
D10*
G36*
X134701505Y-74297204D02*
G01*
X134725773Y-74300804D01*
X134749572Y-74306765D01*
X134772671Y-74315030D01*
X134794850Y-74325520D01*
X134815893Y-74338132D01*
X134835599Y-74352747D01*
X134853777Y-74369223D01*
X134870253Y-74387401D01*
X134884868Y-74407107D01*
X134897480Y-74428150D01*
X134907970Y-74450329D01*
X134916235Y-74473428D01*
X134922196Y-74497227D01*
X134925796Y-74521495D01*
X134927000Y-74545999D01*
X134927000Y-75446001D01*
X134925796Y-75470505D01*
X134922196Y-75494773D01*
X134916235Y-75518572D01*
X134907970Y-75541671D01*
X134897480Y-75563850D01*
X134884868Y-75584893D01*
X134870253Y-75604599D01*
X134853777Y-75622777D01*
X134835599Y-75639253D01*
X134815893Y-75653868D01*
X134794850Y-75666480D01*
X134772671Y-75676970D01*
X134749572Y-75685235D01*
X134725773Y-75691196D01*
X134701505Y-75694796D01*
X134677001Y-75696000D01*
X134026999Y-75696000D01*
X134002495Y-75694796D01*
X133978227Y-75691196D01*
X133954428Y-75685235D01*
X133931329Y-75676970D01*
X133909150Y-75666480D01*
X133888107Y-75653868D01*
X133868401Y-75639253D01*
X133850223Y-75622777D01*
X133833747Y-75604599D01*
X133819132Y-75584893D01*
X133806520Y-75563850D01*
X133796030Y-75541671D01*
X133787765Y-75518572D01*
X133781804Y-75494773D01*
X133778204Y-75470505D01*
X133777000Y-75446001D01*
X133777000Y-74545999D01*
X133778204Y-74521495D01*
X133781804Y-74497227D01*
X133787765Y-74473428D01*
X133796030Y-74450329D01*
X133806520Y-74428150D01*
X133819132Y-74407107D01*
X133833747Y-74387401D01*
X133850223Y-74369223D01*
X133868401Y-74352747D01*
X133888107Y-74338132D01*
X133909150Y-74325520D01*
X133931329Y-74315030D01*
X133954428Y-74306765D01*
X133978227Y-74300804D01*
X134002495Y-74297204D01*
X134026999Y-74296000D01*
X134677001Y-74296000D01*
X134701505Y-74297204D01*
X134701505Y-74297204D01*
G37*
D13*
X134352000Y-74996000D03*
D10*
G36*
X132651505Y-74297204D02*
G01*
X132675773Y-74300804D01*
X132699572Y-74306765D01*
X132722671Y-74315030D01*
X132744850Y-74325520D01*
X132765893Y-74338132D01*
X132785599Y-74352747D01*
X132803777Y-74369223D01*
X132820253Y-74387401D01*
X132834868Y-74407107D01*
X132847480Y-74428150D01*
X132857970Y-74450329D01*
X132866235Y-74473428D01*
X132872196Y-74497227D01*
X132875796Y-74521495D01*
X132877000Y-74545999D01*
X132877000Y-75446001D01*
X132875796Y-75470505D01*
X132872196Y-75494773D01*
X132866235Y-75518572D01*
X132857970Y-75541671D01*
X132847480Y-75563850D01*
X132834868Y-75584893D01*
X132820253Y-75604599D01*
X132803777Y-75622777D01*
X132785599Y-75639253D01*
X132765893Y-75653868D01*
X132744850Y-75666480D01*
X132722671Y-75676970D01*
X132699572Y-75685235D01*
X132675773Y-75691196D01*
X132651505Y-75694796D01*
X132627001Y-75696000D01*
X131976999Y-75696000D01*
X131952495Y-75694796D01*
X131928227Y-75691196D01*
X131904428Y-75685235D01*
X131881329Y-75676970D01*
X131859150Y-75666480D01*
X131838107Y-75653868D01*
X131818401Y-75639253D01*
X131800223Y-75622777D01*
X131783747Y-75604599D01*
X131769132Y-75584893D01*
X131756520Y-75563850D01*
X131746030Y-75541671D01*
X131737765Y-75518572D01*
X131731804Y-75494773D01*
X131728204Y-75470505D01*
X131727000Y-75446001D01*
X131727000Y-74545999D01*
X131728204Y-74521495D01*
X131731804Y-74497227D01*
X131737765Y-74473428D01*
X131746030Y-74450329D01*
X131756520Y-74428150D01*
X131769132Y-74407107D01*
X131783747Y-74387401D01*
X131800223Y-74369223D01*
X131818401Y-74352747D01*
X131838107Y-74338132D01*
X131859150Y-74325520D01*
X131881329Y-74315030D01*
X131904428Y-74306765D01*
X131928227Y-74300804D01*
X131952495Y-74297204D01*
X131976999Y-74296000D01*
X132627001Y-74296000D01*
X132651505Y-74297204D01*
X132651505Y-74297204D01*
G37*
D13*
X132302000Y-74996000D03*
D10*
G36*
X128340504Y-68572205D02*
G01*
X128364772Y-68575805D01*
X128388571Y-68581766D01*
X128411670Y-68590031D01*
X128433849Y-68600521D01*
X128454892Y-68613133D01*
X128474598Y-68627748D01*
X128492776Y-68644224D01*
X128509252Y-68662402D01*
X128523867Y-68682108D01*
X128536479Y-68703151D01*
X128546969Y-68725330D01*
X128555234Y-68748429D01*
X128561195Y-68772228D01*
X128564795Y-68796496D01*
X128565999Y-68821000D01*
X128565999Y-69471002D01*
X128564795Y-69495506D01*
X128561195Y-69519774D01*
X128555234Y-69543573D01*
X128546969Y-69566672D01*
X128536479Y-69588851D01*
X128523867Y-69609894D01*
X128509252Y-69629600D01*
X128492776Y-69647778D01*
X128474598Y-69664254D01*
X128454892Y-69678869D01*
X128433849Y-69691481D01*
X128411670Y-69701971D01*
X128388571Y-69710236D01*
X128364772Y-69716197D01*
X128340504Y-69719797D01*
X128316000Y-69721001D01*
X127415998Y-69721001D01*
X127391494Y-69719797D01*
X127367226Y-69716197D01*
X127343427Y-69710236D01*
X127320328Y-69701971D01*
X127298149Y-69691481D01*
X127277106Y-69678869D01*
X127257400Y-69664254D01*
X127239222Y-69647778D01*
X127222746Y-69629600D01*
X127208131Y-69609894D01*
X127195519Y-69588851D01*
X127185029Y-69566672D01*
X127176764Y-69543573D01*
X127170803Y-69519774D01*
X127167203Y-69495506D01*
X127165999Y-69471002D01*
X127165999Y-68821000D01*
X127167203Y-68796496D01*
X127170803Y-68772228D01*
X127176764Y-68748429D01*
X127185029Y-68725330D01*
X127195519Y-68703151D01*
X127208131Y-68682108D01*
X127222746Y-68662402D01*
X127239222Y-68644224D01*
X127257400Y-68627748D01*
X127277106Y-68613133D01*
X127298149Y-68600521D01*
X127320328Y-68590031D01*
X127343427Y-68581766D01*
X127367226Y-68575805D01*
X127391494Y-68572205D01*
X127415998Y-68571001D01*
X128316000Y-68571001D01*
X128340504Y-68572205D01*
X128340504Y-68572205D01*
G37*
D13*
X127865999Y-69146001D03*
D10*
G36*
X128340504Y-66522205D02*
G01*
X128364772Y-66525805D01*
X128388571Y-66531766D01*
X128411670Y-66540031D01*
X128433849Y-66550521D01*
X128454892Y-66563133D01*
X128474598Y-66577748D01*
X128492776Y-66594224D01*
X128509252Y-66612402D01*
X128523867Y-66632108D01*
X128536479Y-66653151D01*
X128546969Y-66675330D01*
X128555234Y-66698429D01*
X128561195Y-66722228D01*
X128564795Y-66746496D01*
X128565999Y-66771000D01*
X128565999Y-67421002D01*
X128564795Y-67445506D01*
X128561195Y-67469774D01*
X128555234Y-67493573D01*
X128546969Y-67516672D01*
X128536479Y-67538851D01*
X128523867Y-67559894D01*
X128509252Y-67579600D01*
X128492776Y-67597778D01*
X128474598Y-67614254D01*
X128454892Y-67628869D01*
X128433849Y-67641481D01*
X128411670Y-67651971D01*
X128388571Y-67660236D01*
X128364772Y-67666197D01*
X128340504Y-67669797D01*
X128316000Y-67671001D01*
X127415998Y-67671001D01*
X127391494Y-67669797D01*
X127367226Y-67666197D01*
X127343427Y-67660236D01*
X127320328Y-67651971D01*
X127298149Y-67641481D01*
X127277106Y-67628869D01*
X127257400Y-67614254D01*
X127239222Y-67597778D01*
X127222746Y-67579600D01*
X127208131Y-67559894D01*
X127195519Y-67538851D01*
X127185029Y-67516672D01*
X127176764Y-67493573D01*
X127170803Y-67469774D01*
X127167203Y-67445506D01*
X127165999Y-67421002D01*
X127165999Y-66771000D01*
X127167203Y-66746496D01*
X127170803Y-66722228D01*
X127176764Y-66698429D01*
X127185029Y-66675330D01*
X127195519Y-66653151D01*
X127208131Y-66632108D01*
X127222746Y-66612402D01*
X127239222Y-66594224D01*
X127257400Y-66577748D01*
X127277106Y-66563133D01*
X127298149Y-66550521D01*
X127320328Y-66540031D01*
X127343427Y-66531766D01*
X127367226Y-66525805D01*
X127391494Y-66522205D01*
X127415998Y-66521001D01*
X128316000Y-66521001D01*
X128340504Y-66522205D01*
X128340504Y-66522205D01*
G37*
D13*
X127865999Y-67096001D03*
D10*
G36*
X122615505Y-76491204D02*
G01*
X122639773Y-76494804D01*
X122663572Y-76500765D01*
X122686671Y-76509030D01*
X122708850Y-76519520D01*
X122729893Y-76532132D01*
X122749599Y-76546747D01*
X122767777Y-76563223D01*
X122784253Y-76581401D01*
X122798868Y-76601107D01*
X122811480Y-76622150D01*
X122821970Y-76644329D01*
X122830235Y-76667428D01*
X122836196Y-76691227D01*
X122839796Y-76715495D01*
X122841000Y-76739999D01*
X122841000Y-77390001D01*
X122839796Y-77414505D01*
X122836196Y-77438773D01*
X122830235Y-77462572D01*
X122821970Y-77485671D01*
X122811480Y-77507850D01*
X122798868Y-77528893D01*
X122784253Y-77548599D01*
X122767777Y-77566777D01*
X122749599Y-77583253D01*
X122729893Y-77597868D01*
X122708850Y-77610480D01*
X122686671Y-77620970D01*
X122663572Y-77629235D01*
X122639773Y-77635196D01*
X122615505Y-77638796D01*
X122591001Y-77640000D01*
X121690999Y-77640000D01*
X121666495Y-77638796D01*
X121642227Y-77635196D01*
X121618428Y-77629235D01*
X121595329Y-77620970D01*
X121573150Y-77610480D01*
X121552107Y-77597868D01*
X121532401Y-77583253D01*
X121514223Y-77566777D01*
X121497747Y-77548599D01*
X121483132Y-77528893D01*
X121470520Y-77507850D01*
X121460030Y-77485671D01*
X121451765Y-77462572D01*
X121445804Y-77438773D01*
X121442204Y-77414505D01*
X121441000Y-77390001D01*
X121441000Y-76739999D01*
X121442204Y-76715495D01*
X121445804Y-76691227D01*
X121451765Y-76667428D01*
X121460030Y-76644329D01*
X121470520Y-76622150D01*
X121483132Y-76601107D01*
X121497747Y-76581401D01*
X121514223Y-76563223D01*
X121532401Y-76546747D01*
X121552107Y-76532132D01*
X121573150Y-76519520D01*
X121595329Y-76509030D01*
X121618428Y-76500765D01*
X121642227Y-76494804D01*
X121666495Y-76491204D01*
X121690999Y-76490000D01*
X122591001Y-76490000D01*
X122615505Y-76491204D01*
X122615505Y-76491204D01*
G37*
D13*
X122141000Y-77065000D03*
D10*
G36*
X122615505Y-74441204D02*
G01*
X122639773Y-74444804D01*
X122663572Y-74450765D01*
X122686671Y-74459030D01*
X122708850Y-74469520D01*
X122729893Y-74482132D01*
X122749599Y-74496747D01*
X122767777Y-74513223D01*
X122784253Y-74531401D01*
X122798868Y-74551107D01*
X122811480Y-74572150D01*
X122821970Y-74594329D01*
X122830235Y-74617428D01*
X122836196Y-74641227D01*
X122839796Y-74665495D01*
X122841000Y-74689999D01*
X122841000Y-75340001D01*
X122839796Y-75364505D01*
X122836196Y-75388773D01*
X122830235Y-75412572D01*
X122821970Y-75435671D01*
X122811480Y-75457850D01*
X122798868Y-75478893D01*
X122784253Y-75498599D01*
X122767777Y-75516777D01*
X122749599Y-75533253D01*
X122729893Y-75547868D01*
X122708850Y-75560480D01*
X122686671Y-75570970D01*
X122663572Y-75579235D01*
X122639773Y-75585196D01*
X122615505Y-75588796D01*
X122591001Y-75590000D01*
X121690999Y-75590000D01*
X121666495Y-75588796D01*
X121642227Y-75585196D01*
X121618428Y-75579235D01*
X121595329Y-75570970D01*
X121573150Y-75560480D01*
X121552107Y-75547868D01*
X121532401Y-75533253D01*
X121514223Y-75516777D01*
X121497747Y-75498599D01*
X121483132Y-75478893D01*
X121470520Y-75457850D01*
X121460030Y-75435671D01*
X121451765Y-75412572D01*
X121445804Y-75388773D01*
X121442204Y-75364505D01*
X121441000Y-75340001D01*
X121441000Y-74689999D01*
X121442204Y-74665495D01*
X121445804Y-74641227D01*
X121451765Y-74617428D01*
X121460030Y-74594329D01*
X121470520Y-74572150D01*
X121483132Y-74551107D01*
X121497747Y-74531401D01*
X121514223Y-74513223D01*
X121532401Y-74496747D01*
X121552107Y-74482132D01*
X121573150Y-74469520D01*
X121595329Y-74459030D01*
X121618428Y-74450765D01*
X121642227Y-74444804D01*
X121666495Y-74441204D01*
X121690999Y-74440000D01*
X122591001Y-74440000D01*
X122615505Y-74441204D01*
X122615505Y-74441204D01*
G37*
D13*
X122141000Y-75015000D03*
D10*
G36*
X111566505Y-74051204D02*
G01*
X111590773Y-74054804D01*
X111614572Y-74060765D01*
X111637671Y-74069030D01*
X111659850Y-74079520D01*
X111680893Y-74092132D01*
X111700599Y-74106747D01*
X111718777Y-74123223D01*
X111735253Y-74141401D01*
X111749868Y-74161107D01*
X111762480Y-74182150D01*
X111772970Y-74204329D01*
X111781235Y-74227428D01*
X111787196Y-74251227D01*
X111790796Y-74275495D01*
X111792000Y-74299999D01*
X111792000Y-74950001D01*
X111790796Y-74974505D01*
X111787196Y-74998773D01*
X111781235Y-75022572D01*
X111772970Y-75045671D01*
X111762480Y-75067850D01*
X111749868Y-75088893D01*
X111735253Y-75108599D01*
X111718777Y-75126777D01*
X111700599Y-75143253D01*
X111680893Y-75157868D01*
X111659850Y-75170480D01*
X111637671Y-75180970D01*
X111614572Y-75189235D01*
X111590773Y-75195196D01*
X111566505Y-75198796D01*
X111542001Y-75200000D01*
X110641999Y-75200000D01*
X110617495Y-75198796D01*
X110593227Y-75195196D01*
X110569428Y-75189235D01*
X110546329Y-75180970D01*
X110524150Y-75170480D01*
X110503107Y-75157868D01*
X110483401Y-75143253D01*
X110465223Y-75126777D01*
X110448747Y-75108599D01*
X110434132Y-75088893D01*
X110421520Y-75067850D01*
X110411030Y-75045671D01*
X110402765Y-75022572D01*
X110396804Y-74998773D01*
X110393204Y-74974505D01*
X110392000Y-74950001D01*
X110392000Y-74299999D01*
X110393204Y-74275495D01*
X110396804Y-74251227D01*
X110402765Y-74227428D01*
X110411030Y-74204329D01*
X110421520Y-74182150D01*
X110434132Y-74161107D01*
X110448747Y-74141401D01*
X110465223Y-74123223D01*
X110483401Y-74106747D01*
X110503107Y-74092132D01*
X110524150Y-74079520D01*
X110546329Y-74069030D01*
X110569428Y-74060765D01*
X110593227Y-74054804D01*
X110617495Y-74051204D01*
X110641999Y-74050000D01*
X111542001Y-74050000D01*
X111566505Y-74051204D01*
X111566505Y-74051204D01*
G37*
D13*
X111092000Y-74625000D03*
D10*
G36*
X111566505Y-76101204D02*
G01*
X111590773Y-76104804D01*
X111614572Y-76110765D01*
X111637671Y-76119030D01*
X111659850Y-76129520D01*
X111680893Y-76142132D01*
X111700599Y-76156747D01*
X111718777Y-76173223D01*
X111735253Y-76191401D01*
X111749868Y-76211107D01*
X111762480Y-76232150D01*
X111772970Y-76254329D01*
X111781235Y-76277428D01*
X111787196Y-76301227D01*
X111790796Y-76325495D01*
X111792000Y-76349999D01*
X111792000Y-77000001D01*
X111790796Y-77024505D01*
X111787196Y-77048773D01*
X111781235Y-77072572D01*
X111772970Y-77095671D01*
X111762480Y-77117850D01*
X111749868Y-77138893D01*
X111735253Y-77158599D01*
X111718777Y-77176777D01*
X111700599Y-77193253D01*
X111680893Y-77207868D01*
X111659850Y-77220480D01*
X111637671Y-77230970D01*
X111614572Y-77239235D01*
X111590773Y-77245196D01*
X111566505Y-77248796D01*
X111542001Y-77250000D01*
X110641999Y-77250000D01*
X110617495Y-77248796D01*
X110593227Y-77245196D01*
X110569428Y-77239235D01*
X110546329Y-77230970D01*
X110524150Y-77220480D01*
X110503107Y-77207868D01*
X110483401Y-77193253D01*
X110465223Y-77176777D01*
X110448747Y-77158599D01*
X110434132Y-77138893D01*
X110421520Y-77117850D01*
X110411030Y-77095671D01*
X110402765Y-77072572D01*
X110396804Y-77048773D01*
X110393204Y-77024505D01*
X110392000Y-77000001D01*
X110392000Y-76349999D01*
X110393204Y-76325495D01*
X110396804Y-76301227D01*
X110402765Y-76277428D01*
X110411030Y-76254329D01*
X110421520Y-76232150D01*
X110434132Y-76211107D01*
X110448747Y-76191401D01*
X110465223Y-76173223D01*
X110483401Y-76156747D01*
X110503107Y-76142132D01*
X110524150Y-76129520D01*
X110546329Y-76119030D01*
X110569428Y-76110765D01*
X110593227Y-76104804D01*
X110617495Y-76101204D01*
X110641999Y-76100000D01*
X111542001Y-76100000D01*
X111566505Y-76101204D01*
X111566505Y-76101204D01*
G37*
D13*
X111092000Y-76675000D03*
D21*
X135222000Y-68293000D03*
X128999000Y-74770000D03*
X110594000Y-53533000D03*
X110594000Y-64709000D03*
X111092000Y-72738000D03*
X118849000Y-69535000D03*
X117061000Y-86835000D03*
X122141000Y-86962000D03*
X153774000Y-77663000D03*
X136375000Y-74996000D03*
X148440000Y-76139000D03*
D22*
X133825000Y-69563000D03*
X132174000Y-67912000D03*
D23*
X153774000Y-78044000D02*
X153774000Y-74107000D01*
X148440000Y-74125000D02*
X148313000Y-73998000D01*
X148440000Y-76139000D02*
X148440000Y-74125000D01*
X111229000Y-74479000D02*
X111238000Y-74488000D01*
X111092000Y-72611000D02*
X111092000Y-74634000D01*
X110594000Y-64709000D02*
X105006000Y-64709000D01*
X105006000Y-53533000D02*
X110594000Y-53533000D01*
X118849000Y-71821000D02*
X118849000Y-69535000D01*
X134352000Y-74996000D02*
X136375000Y-74996000D01*
X122151000Y-86952000D02*
X122141000Y-86962000D01*
X122151000Y-84775000D02*
X122151000Y-86952000D01*
X117071000Y-86825000D02*
X117061000Y-86835000D01*
X117071000Y-84775000D02*
X117071000Y-86825000D01*
X128999000Y-74770000D02*
X130142000Y-73627000D01*
X130142000Y-73627000D02*
X130142000Y-72357000D01*
X108017500Y-79441000D02*
X111102000Y-79441000D01*
X111102000Y-76685000D02*
X111092000Y-76675000D01*
X111102000Y-79441000D02*
X111102000Y-76685000D01*
X117071000Y-79695000D02*
X122151000Y-79695000D01*
X116817000Y-79441000D02*
X117071000Y-79695000D01*
X113152000Y-79441000D02*
X116817000Y-79441000D01*
X122151000Y-77075000D02*
X122141000Y-77065000D01*
X122151000Y-79695000D02*
X122151000Y-77075000D01*
X123665000Y-71341000D02*
X125834000Y-69172000D01*
X127840000Y-69172000D02*
X127865999Y-69146001D01*
X125834000Y-69172000D02*
X127840000Y-69172000D01*
X128212999Y-69493001D02*
X130331001Y-69493001D01*
X127865999Y-69146001D02*
X128212999Y-69493001D01*
X123665000Y-72816000D02*
X123665000Y-71341000D01*
X122141000Y-74340000D02*
X123665000Y-72816000D01*
X122141000Y-75015000D02*
X122141000Y-74340000D01*
X127840000Y-67122000D02*
X127865999Y-67096001D01*
X125834000Y-67122000D02*
X127840000Y-67122000D01*
X129204001Y-67096001D02*
X127865999Y-67096001D01*
X130331001Y-68223001D02*
X129204001Y-67096001D01*
X129204001Y-66527999D02*
X130388000Y-65344000D01*
X129204001Y-67096001D02*
X129204001Y-66527999D01*
X127526999Y-70763001D02*
X130331001Y-70763001D01*
X126469000Y-71821000D02*
X127526999Y-70763001D01*
D24*
X140136000Y-73599000D02*
X140811000Y-73599000D01*
X132899000Y-73599000D02*
X140136000Y-73599000D01*
X132302000Y-74196000D02*
X132899000Y-73599000D01*
X132302000Y-74996000D02*
X132302000Y-74196000D01*
X131231001Y-70763001D02*
X130331001Y-70763001D01*
X132899000Y-72431000D02*
X131231001Y-70763001D01*
X132899000Y-73599000D02*
X132899000Y-72431000D01*
X136620000Y-65344000D02*
X136375000Y-65344000D01*
X138407000Y-63557000D02*
X136620000Y-65344000D01*
X132047000Y-69947002D02*
X131231001Y-70763001D01*
X132047000Y-69309000D02*
X132047000Y-69947002D01*
X135388628Y-65967372D02*
X132047000Y-69309000D01*
X135751628Y-65967372D02*
X135388628Y-65967372D01*
X136375000Y-65344000D02*
X135751628Y-65967372D01*
D23*
X134325000Y-65344000D02*
X132438000Y-65344000D01*
D24*
X137160291Y-71662291D02*
X135924291Y-71662291D01*
X137531001Y-72033001D02*
X137160291Y-71662291D01*
X135924291Y-71662291D02*
X133825000Y-69563000D01*
X133825000Y-69563000D02*
X133825000Y-69563000D01*
X132174000Y-65608000D02*
X132438000Y-65344000D01*
X132174000Y-67912000D02*
X132174000Y-65608000D01*
D23*
X105006000Y-79404500D02*
X105042500Y-79441000D01*
X105006000Y-69789000D02*
X105006000Y-79404500D01*
X135291999Y-68223001D02*
X135222000Y-68293000D01*
X137531001Y-68223001D02*
X135291999Y-68223001D01*
X138407000Y-67347002D02*
X137531001Y-68223001D01*
X138407000Y-65607000D02*
X138407000Y-67347002D01*
D24*
X142349499Y-70763001D02*
X142471000Y-70641500D01*
X137531001Y-70763001D02*
X142349499Y-70763001D01*
D23*
X142861000Y-71031500D02*
X142471000Y-70641500D01*
X142861000Y-73599000D02*
X142861000Y-71031500D01*
D24*
X142471000Y-67666500D02*
X142198500Y-67666500D01*
X140371999Y-69493001D02*
X137531001Y-69493001D01*
X142198500Y-67666500D02*
X140371999Y-69493001D01*
X142580500Y-67776000D02*
X142471000Y-67666500D01*
X148303000Y-67776000D02*
X142580500Y-67776000D01*
X153774000Y-66487000D02*
X153538000Y-66487000D01*
X150326000Y-69826000D02*
X148303000Y-69826000D01*
X153774000Y-66487000D02*
X151605000Y-68547000D01*
X151605000Y-68547000D02*
X150326000Y-69826000D01*
D23*
X148313000Y-69836000D02*
X148303000Y-69826000D01*
X148313000Y-71948000D02*
X148313000Y-69836000D01*
M02*
