G04 #@! TF.GenerationSoftware,KiCad,Pcbnew,(5.1.4)-1*
G04 #@! TF.CreationDate,2020-04-09T16:08:48+02:00*
G04 #@! TF.ProjectId,PIN_NiklasNachbau,50494e5f-4e69-46b6-9c61-734e61636862,rev?*
G04 #@! TF.SameCoordinates,Original*
G04 #@! TF.FileFunction,Legend,Top*
G04 #@! TF.FilePolarity,Positive*
%FSLAX46Y46*%
G04 Gerber Fmt 4.6, Leading zero omitted, Abs format (unit mm)*
G04 Created by KiCad (PCBNEW (5.1.4)-1) date 2020-04-09 16:08:48*
%MOMM*%
%LPD*%
G04 APERTURE LIST*
%ADD10C,0.150000*%
%ADD11C,0.200000*%
%ADD12C,0.300000*%
%ADD13C,0.120000*%
G04 APERTURE END LIST*
D10*
X158689142Y-68050714D02*
X158760571Y-67836428D01*
X158760571Y-67479285D01*
X158689142Y-67336428D01*
X158617714Y-67265000D01*
X158474857Y-67193571D01*
X158332000Y-67193571D01*
X158189142Y-67265000D01*
X158117714Y-67336428D01*
X158046285Y-67479285D01*
X157974857Y-67765000D01*
X157903428Y-67907857D01*
X157832000Y-67979285D01*
X157689142Y-68050714D01*
X157546285Y-68050714D01*
X157403428Y-67979285D01*
X157332000Y-67907857D01*
X157260571Y-67765000D01*
X157260571Y-67407857D01*
X157332000Y-67193571D01*
X158760571Y-66550714D02*
X157260571Y-66550714D01*
X157332000Y-65050714D02*
X157260571Y-65193571D01*
X157260571Y-65407857D01*
X157332000Y-65622142D01*
X157474857Y-65765000D01*
X157617714Y-65836428D01*
X157903428Y-65907857D01*
X158117714Y-65907857D01*
X158403428Y-65836428D01*
X158546285Y-65765000D01*
X158689142Y-65622142D01*
X158760571Y-65407857D01*
X158760571Y-65265000D01*
X158689142Y-65050714D01*
X158617714Y-64979285D01*
X158117714Y-64979285D01*
X158117714Y-65265000D01*
X157459000Y-75658857D02*
X157387571Y-75801714D01*
X157387571Y-76016000D01*
X157459000Y-76230285D01*
X157601857Y-76373142D01*
X157744714Y-76444571D01*
X158030428Y-76516000D01*
X158244714Y-76516000D01*
X158530428Y-76444571D01*
X158673285Y-76373142D01*
X158816142Y-76230285D01*
X158887571Y-76016000D01*
X158887571Y-75873142D01*
X158816142Y-75658857D01*
X158744714Y-75587428D01*
X158244714Y-75587428D01*
X158244714Y-75873142D01*
X158887571Y-74944571D02*
X157387571Y-74944571D01*
X158887571Y-74087428D01*
X157387571Y-74087428D01*
X158887571Y-73373142D02*
X157387571Y-73373142D01*
X157387571Y-73016000D01*
X157459000Y-72801714D01*
X157601857Y-72658857D01*
X157744714Y-72587428D01*
X158030428Y-72516000D01*
X158244714Y-72516000D01*
X158530428Y-72587428D01*
X158673285Y-72658857D01*
X158816142Y-72801714D01*
X158887571Y-73016000D01*
X158887571Y-73373142D01*
X131832952Y-71666380D02*
X131356761Y-71666380D01*
X131356761Y-70666380D01*
X132166285Y-71666380D02*
X132166285Y-70666380D01*
X132499619Y-71380666D01*
X132832952Y-70666380D01*
X132832952Y-71666380D01*
X133166285Y-70666380D02*
X133499619Y-71666380D01*
X133832952Y-70666380D01*
X134071047Y-70666380D02*
X134737714Y-70666380D01*
X134309142Y-71666380D01*
X135166285Y-71666380D02*
X135356761Y-71666380D01*
X135452000Y-71618761D01*
X135499619Y-71571142D01*
X135594857Y-71428285D01*
X135642476Y-71237809D01*
X135642476Y-70856857D01*
X135594857Y-70761619D01*
X135547238Y-70714000D01*
X135452000Y-70666380D01*
X135261523Y-70666380D01*
X135166285Y-70714000D01*
X135118666Y-70761619D01*
X135071047Y-70856857D01*
X135071047Y-71094952D01*
X135118666Y-71190190D01*
X135166285Y-71237809D01*
X135261523Y-71285428D01*
X135452000Y-71285428D01*
X135547238Y-71237809D01*
X135594857Y-71190190D01*
X135642476Y-71094952D01*
X136499619Y-70999714D02*
X136499619Y-71666380D01*
X136261523Y-70618761D02*
X136023428Y-71333047D01*
X136642476Y-71333047D01*
X119363142Y-70142380D02*
X118791714Y-70142380D01*
X119077428Y-70142380D02*
X119077428Y-69142380D01*
X118982190Y-69285238D01*
X118886952Y-69380476D01*
X118791714Y-69428095D01*
X119791714Y-70142380D02*
X119791714Y-69142380D01*
X120363142Y-70142380D01*
X120363142Y-69142380D01*
X121267904Y-69475714D02*
X121267904Y-70142380D01*
X121029809Y-69094761D02*
X120791714Y-69809047D01*
X121410761Y-69809047D01*
X122315523Y-70142380D02*
X121744095Y-70142380D01*
X122029809Y-70142380D02*
X122029809Y-69142380D01*
X121934571Y-69285238D01*
X121839333Y-69380476D01*
X121744095Y-69428095D01*
X123172666Y-69475714D02*
X123172666Y-70142380D01*
X122934571Y-69094761D02*
X122696476Y-69809047D01*
X123315523Y-69809047D01*
X123839333Y-69570952D02*
X123744095Y-69523333D01*
X123696476Y-69475714D01*
X123648857Y-69380476D01*
X123648857Y-69332857D01*
X123696476Y-69237619D01*
X123744095Y-69190000D01*
X123839333Y-69142380D01*
X124029809Y-69142380D01*
X124125047Y-69190000D01*
X124172666Y-69237619D01*
X124220285Y-69332857D01*
X124220285Y-69380476D01*
X124172666Y-69475714D01*
X124125047Y-69523333D01*
X124029809Y-69570952D01*
X123839333Y-69570952D01*
X123744095Y-69618571D01*
X123696476Y-69666190D01*
X123648857Y-69761428D01*
X123648857Y-69951904D01*
X123696476Y-70047142D01*
X123744095Y-70094761D01*
X123839333Y-70142380D01*
X124029809Y-70142380D01*
X124125047Y-70094761D01*
X124172666Y-70047142D01*
X124220285Y-69951904D01*
X124220285Y-69761428D01*
X124172666Y-69666190D01*
X124125047Y-69618571D01*
X124029809Y-69570952D01*
X116902571Y-86890571D02*
X117045428Y-86938190D01*
X117093047Y-86985809D01*
X117140666Y-87081047D01*
X117140666Y-87223904D01*
X117093047Y-87319142D01*
X117045428Y-87366761D01*
X116950190Y-87414380D01*
X116569238Y-87414380D01*
X116569238Y-86414380D01*
X116902571Y-86414380D01*
X116997809Y-86462000D01*
X117045428Y-86509619D01*
X117093047Y-86604857D01*
X117093047Y-86700095D01*
X117045428Y-86795333D01*
X116997809Y-86842952D01*
X116902571Y-86890571D01*
X116569238Y-86890571D01*
X117569238Y-87414380D02*
X117569238Y-86414380D01*
X117950190Y-86414380D01*
X118045428Y-86462000D01*
X118093047Y-86509619D01*
X118140666Y-86604857D01*
X118140666Y-86747714D01*
X118093047Y-86842952D01*
X118045428Y-86890571D01*
X117950190Y-86938190D01*
X117569238Y-86938190D01*
X118474000Y-86414380D02*
X118712095Y-87414380D01*
X118902571Y-86700095D01*
X119093047Y-87414380D01*
X119331142Y-86414380D01*
X119712095Y-87033428D02*
X120474000Y-87033428D01*
X120854952Y-86414380D02*
X121474000Y-86414380D01*
X121140666Y-86795333D01*
X121283523Y-86795333D01*
X121378761Y-86842952D01*
X121426380Y-86890571D01*
X121474000Y-86985809D01*
X121474000Y-87223904D01*
X121426380Y-87319142D01*
X121378761Y-87366761D01*
X121283523Y-87414380D01*
X120997809Y-87414380D01*
X120902571Y-87366761D01*
X120854952Y-87319142D01*
X122378761Y-86414380D02*
X121902571Y-86414380D01*
X121854952Y-86890571D01*
X121902571Y-86842952D01*
X121997809Y-86795333D01*
X122235904Y-86795333D01*
X122331142Y-86842952D01*
X122378761Y-86890571D01*
X122426380Y-86985809D01*
X122426380Y-87223904D01*
X122378761Y-87319142D01*
X122331142Y-87366761D01*
X122235904Y-87414380D01*
X121997809Y-87414380D01*
X121902571Y-87366761D01*
X121854952Y-87319142D01*
D11*
X110703000Y-64102095D02*
X110750619Y-64006857D01*
X110750619Y-63864000D01*
X110703000Y-63721142D01*
X110607761Y-63625904D01*
X110512523Y-63578285D01*
X110322047Y-63530666D01*
X110179190Y-63530666D01*
X109988714Y-63578285D01*
X109893476Y-63625904D01*
X109798238Y-63721142D01*
X109750619Y-63864000D01*
X109750619Y-63959238D01*
X109798238Y-64102095D01*
X109845857Y-64149714D01*
X110179190Y-64149714D01*
X110179190Y-63959238D01*
X109750619Y-64578285D02*
X110750619Y-64578285D01*
X109750619Y-65149714D01*
X110750619Y-65149714D01*
X109750619Y-65625904D02*
X110750619Y-65625904D01*
X110750619Y-65864000D01*
X110703000Y-66006857D01*
X110607761Y-66102095D01*
X110512523Y-66149714D01*
X110322047Y-66197333D01*
X110179190Y-66197333D01*
X109988714Y-66149714D01*
X109893476Y-66102095D01*
X109798238Y-66006857D01*
X109750619Y-65864000D01*
X109750619Y-65625904D01*
X110655380Y-68626523D02*
X110703000Y-68674142D01*
X110750619Y-68769380D01*
X110750619Y-69007476D01*
X110703000Y-69102714D01*
X110655380Y-69150333D01*
X110560142Y-69197952D01*
X110464904Y-69197952D01*
X110322047Y-69150333D01*
X109750619Y-68578904D01*
X109750619Y-69197952D01*
X110417285Y-70055095D02*
X109750619Y-70055095D01*
X110798238Y-69817000D02*
X110083952Y-69578904D01*
X110083952Y-70197952D01*
X110750619Y-70436047D02*
X109750619Y-70769380D01*
X110750619Y-71102714D01*
X110703000Y-52672095D02*
X110750619Y-52576857D01*
X110750619Y-52434000D01*
X110703000Y-52291142D01*
X110607761Y-52195904D01*
X110512523Y-52148285D01*
X110322047Y-52100666D01*
X110179190Y-52100666D01*
X109988714Y-52148285D01*
X109893476Y-52195904D01*
X109798238Y-52291142D01*
X109750619Y-52434000D01*
X109750619Y-52529238D01*
X109798238Y-52672095D01*
X109845857Y-52719714D01*
X110179190Y-52719714D01*
X110179190Y-52529238D01*
X109750619Y-53148285D02*
X110750619Y-53148285D01*
X109750619Y-53719714D01*
X110750619Y-53719714D01*
X109750619Y-54195904D02*
X110750619Y-54195904D01*
X110750619Y-54434000D01*
X110703000Y-54576857D01*
X110607761Y-54672095D01*
X110512523Y-54719714D01*
X110322047Y-54767333D01*
X110179190Y-54767333D01*
X109988714Y-54719714D01*
X109893476Y-54672095D01*
X109798238Y-54576857D01*
X109750619Y-54434000D01*
X109750619Y-54195904D01*
X110750619Y-57910904D02*
X110750619Y-58529952D01*
X110369666Y-58196619D01*
X110369666Y-58339476D01*
X110322047Y-58434714D01*
X110274428Y-58482333D01*
X110179190Y-58529952D01*
X109941095Y-58529952D01*
X109845857Y-58482333D01*
X109798238Y-58434714D01*
X109750619Y-58339476D01*
X109750619Y-58053761D01*
X109798238Y-57958523D01*
X109845857Y-57910904D01*
X110750619Y-58815666D02*
X109750619Y-59149000D01*
X110750619Y-59482333D01*
X110750619Y-59720428D02*
X110750619Y-60339476D01*
X110369666Y-60006142D01*
X110369666Y-60149000D01*
X110322047Y-60244238D01*
X110274428Y-60291857D01*
X110179190Y-60339476D01*
X109941095Y-60339476D01*
X109845857Y-60291857D01*
X109798238Y-60244238D01*
X109750619Y-60149000D01*
X109750619Y-59863285D01*
X109798238Y-59768047D01*
X109845857Y-59720428D01*
D12*
X129445238Y-87993761D02*
X128492857Y-87993761D01*
X128492857Y-85993761D01*
X130873809Y-87898523D02*
X130683333Y-87993761D01*
X130302380Y-87993761D01*
X130111904Y-87898523D01*
X130016666Y-87708047D01*
X130016666Y-86946142D01*
X130111904Y-86755666D01*
X130302380Y-86660428D01*
X130683333Y-86660428D01*
X130873809Y-86755666D01*
X130969047Y-86946142D01*
X130969047Y-87136619D01*
X130016666Y-87327095D01*
X132111904Y-87993761D02*
X131921428Y-87898523D01*
X131826190Y-87803285D01*
X131730952Y-87612809D01*
X131730952Y-87041380D01*
X131826190Y-86850904D01*
X131921428Y-86755666D01*
X132111904Y-86660428D01*
X132397619Y-86660428D01*
X132588095Y-86755666D01*
X132683333Y-86850904D01*
X132778571Y-87041380D01*
X132778571Y-87612809D01*
X132683333Y-87803285D01*
X132588095Y-87898523D01*
X132397619Y-87993761D01*
X132111904Y-87993761D01*
X133635714Y-86660428D02*
X133635714Y-87993761D01*
X133635714Y-86850904D02*
X133730952Y-86755666D01*
X133921428Y-86660428D01*
X134207142Y-86660428D01*
X134397619Y-86755666D01*
X134492857Y-86946142D01*
X134492857Y-87993761D01*
X136969047Y-87993761D02*
X136969047Y-85993761D01*
X136969047Y-86946142D02*
X138111904Y-86946142D01*
X138111904Y-87993761D02*
X138111904Y-85993761D01*
X139826190Y-87898523D02*
X139635714Y-87993761D01*
X139254761Y-87993761D01*
X139064285Y-87898523D01*
X138969047Y-87708047D01*
X138969047Y-86946142D01*
X139064285Y-86755666D01*
X139254761Y-86660428D01*
X139635714Y-86660428D01*
X139826190Y-86755666D01*
X139921428Y-86946142D01*
X139921428Y-87136619D01*
X138969047Y-87327095D01*
X141064285Y-87993761D02*
X140873809Y-87898523D01*
X140778571Y-87708047D01*
X140778571Y-85993761D01*
X142111904Y-87993761D02*
X141921428Y-87898523D01*
X141826190Y-87708047D01*
X141826190Y-85993761D01*
X142873809Y-87993761D02*
X142873809Y-86660428D01*
X142873809Y-86850904D02*
X142969047Y-86755666D01*
X143159523Y-86660428D01*
X143445238Y-86660428D01*
X143635714Y-86755666D01*
X143730952Y-86946142D01*
X143730952Y-87993761D01*
X143730952Y-86946142D02*
X143826190Y-86755666D01*
X144016666Y-86660428D01*
X144302380Y-86660428D01*
X144492857Y-86755666D01*
X144588095Y-86946142D01*
X144588095Y-87993761D01*
X145540476Y-87993761D02*
X145540476Y-86660428D01*
X145540476Y-85993761D02*
X145445238Y-86089000D01*
X145540476Y-86184238D01*
X145635714Y-86089000D01*
X145540476Y-85993761D01*
X145540476Y-86184238D01*
X147350000Y-87898523D02*
X147159523Y-87993761D01*
X146778571Y-87993761D01*
X146588095Y-87898523D01*
X146492857Y-87803285D01*
X146397619Y-87612809D01*
X146397619Y-87041380D01*
X146492857Y-86850904D01*
X146588095Y-86755666D01*
X146778571Y-86660428D01*
X147159523Y-86660428D01*
X147350000Y-86755666D01*
X148207142Y-87993761D02*
X148207142Y-85993761D01*
X149064285Y-87993761D02*
X149064285Y-86946142D01*
X148969047Y-86755666D01*
X148778571Y-86660428D01*
X148492857Y-86660428D01*
X148302380Y-86755666D01*
X148207142Y-86850904D01*
X151445238Y-86184238D02*
X151540476Y-86089000D01*
X151730952Y-85993761D01*
X152207142Y-85993761D01*
X152397619Y-86089000D01*
X152492857Y-86184238D01*
X152588095Y-86374714D01*
X152588095Y-86565190D01*
X152492857Y-86850904D01*
X151350000Y-87993761D01*
X152588095Y-87993761D01*
X153826190Y-85993761D02*
X154016666Y-85993761D01*
X154207142Y-86089000D01*
X154302380Y-86184238D01*
X154397619Y-86374714D01*
X154492857Y-86755666D01*
X154492857Y-87231857D01*
X154397619Y-87612809D01*
X154302380Y-87803285D01*
X154207142Y-87898523D01*
X154016666Y-87993761D01*
X153826190Y-87993761D01*
X153635714Y-87898523D01*
X153540476Y-87803285D01*
X153445238Y-87612809D01*
X153350000Y-87231857D01*
X153350000Y-86755666D01*
X153445238Y-86374714D01*
X153540476Y-86184238D01*
X153635714Y-86089000D01*
X153826190Y-85993761D01*
X155254761Y-86184238D02*
X155350000Y-86089000D01*
X155540476Y-85993761D01*
X156016666Y-85993761D01*
X156207142Y-86089000D01*
X156302380Y-86184238D01*
X156397619Y-86374714D01*
X156397619Y-86565190D01*
X156302380Y-86850904D01*
X155159523Y-87993761D01*
X156397619Y-87993761D01*
X157635714Y-85993761D02*
X157826190Y-85993761D01*
X158016666Y-86089000D01*
X158111904Y-86184238D01*
X158207142Y-86374714D01*
X158302380Y-86755666D01*
X158302380Y-87231857D01*
X158207142Y-87612809D01*
X158111904Y-87803285D01*
X158016666Y-87898523D01*
X157826190Y-87993761D01*
X157635714Y-87993761D01*
X157445238Y-87898523D01*
X157350000Y-87803285D01*
X157254761Y-87612809D01*
X157159523Y-87231857D01*
X157159523Y-86755666D01*
X157254761Y-86374714D01*
X157350000Y-86184238D01*
X157445238Y-86089000D01*
X157635714Y-85993761D01*
X125302142Y-54338761D02*
X125302142Y-52338761D01*
X126064047Y-52338761D01*
X126254523Y-52434000D01*
X126349761Y-52529238D01*
X126445000Y-52719714D01*
X126445000Y-53005428D01*
X126349761Y-53195904D01*
X126254523Y-53291142D01*
X126064047Y-53386380D01*
X125302142Y-53386380D01*
X127302142Y-54338761D02*
X127302142Y-52338761D01*
X128254523Y-54338761D02*
X128254523Y-52338761D01*
X129397380Y-54338761D01*
X129397380Y-52338761D01*
X130349761Y-53576857D02*
X131873571Y-53576857D01*
X132825952Y-54338761D02*
X132825952Y-52338761D01*
X133302142Y-52338761D01*
X133587857Y-52434000D01*
X133778333Y-52624476D01*
X133873571Y-52814952D01*
X133968809Y-53195904D01*
X133968809Y-53481619D01*
X133873571Y-53862571D01*
X133778333Y-54053047D01*
X133587857Y-54243523D01*
X133302142Y-54338761D01*
X132825952Y-54338761D01*
X134825952Y-54338761D02*
X134825952Y-53005428D01*
X134825952Y-52338761D02*
X134730714Y-52434000D01*
X134825952Y-52529238D01*
X134921190Y-52434000D01*
X134825952Y-52338761D01*
X134825952Y-52529238D01*
X136064047Y-54338761D02*
X135873571Y-54243523D01*
X135778333Y-54148285D01*
X135683095Y-53957809D01*
X135683095Y-53386380D01*
X135778333Y-53195904D01*
X135873571Y-53100666D01*
X136064047Y-53005428D01*
X136349761Y-53005428D01*
X136540238Y-53100666D01*
X136635476Y-53195904D01*
X136730714Y-53386380D01*
X136730714Y-53957809D01*
X136635476Y-54148285D01*
X136540238Y-54243523D01*
X136349761Y-54338761D01*
X136064047Y-54338761D01*
X138445000Y-54338761D02*
X138445000Y-52338761D01*
X138445000Y-54243523D02*
X138254523Y-54338761D01*
X137873571Y-54338761D01*
X137683095Y-54243523D01*
X137587857Y-54148285D01*
X137492619Y-53957809D01*
X137492619Y-53386380D01*
X137587857Y-53195904D01*
X137683095Y-53100666D01*
X137873571Y-53005428D01*
X138254523Y-53005428D01*
X138445000Y-53100666D01*
X140159285Y-54243523D02*
X139968809Y-54338761D01*
X139587857Y-54338761D01*
X139397380Y-54243523D01*
X139302142Y-54053047D01*
X139302142Y-53291142D01*
X139397380Y-53100666D01*
X139587857Y-53005428D01*
X139968809Y-53005428D01*
X140159285Y-53100666D01*
X140254523Y-53291142D01*
X140254523Y-53481619D01*
X139302142Y-53672095D01*
X141111666Y-53005428D02*
X141111666Y-54338761D01*
X141111666Y-53195904D02*
X141206904Y-53100666D01*
X141397380Y-53005428D01*
X141683095Y-53005428D01*
X141873571Y-53100666D01*
X141968809Y-53291142D01*
X141968809Y-54338761D01*
X144445000Y-54338761D02*
X144445000Y-52338761D01*
X145206904Y-52338761D01*
X145397380Y-52434000D01*
X145492619Y-52529238D01*
X145587857Y-52719714D01*
X145587857Y-53005428D01*
X145492619Y-53195904D01*
X145397380Y-53291142D01*
X145206904Y-53386380D01*
X144445000Y-53386380D01*
X146825952Y-52338761D02*
X147206904Y-52338761D01*
X147397380Y-52434000D01*
X147587857Y-52624476D01*
X147683095Y-53005428D01*
X147683095Y-53672095D01*
X147587857Y-54053047D01*
X147397380Y-54243523D01*
X147206904Y-54338761D01*
X146825952Y-54338761D01*
X146635476Y-54243523D01*
X146445000Y-54053047D01*
X146349761Y-53672095D01*
X146349761Y-53005428D01*
X146445000Y-52624476D01*
X146635476Y-52434000D01*
X146825952Y-52338761D01*
X149683095Y-54148285D02*
X149587857Y-54243523D01*
X149302142Y-54338761D01*
X149111666Y-54338761D01*
X148825952Y-54243523D01*
X148635476Y-54053047D01*
X148540238Y-53862571D01*
X148445000Y-53481619D01*
X148445000Y-53195904D01*
X148540238Y-52814952D01*
X148635476Y-52624476D01*
X148825952Y-52434000D01*
X149111666Y-52338761D01*
X149302142Y-52338761D01*
X149587857Y-52434000D01*
X149683095Y-52529238D01*
X151778333Y-52338761D02*
X152445000Y-54338761D01*
X153111666Y-52338761D01*
X154825952Y-54338761D02*
X153683095Y-54338761D01*
X154254523Y-54338761D02*
X154254523Y-52338761D01*
X154064047Y-52624476D01*
X153873571Y-52814952D01*
X153683095Y-52910190D01*
X155683095Y-54148285D02*
X155778333Y-54243523D01*
X155683095Y-54338761D01*
X155587857Y-54243523D01*
X155683095Y-54148285D01*
X155683095Y-54338761D01*
X157016428Y-52338761D02*
X157206904Y-52338761D01*
X157397380Y-52434000D01*
X157492619Y-52529238D01*
X157587857Y-52719714D01*
X157683095Y-53100666D01*
X157683095Y-53576857D01*
X157587857Y-53957809D01*
X157492619Y-54148285D01*
X157397380Y-54243523D01*
X157206904Y-54338761D01*
X157016428Y-54338761D01*
X156825952Y-54243523D01*
X156730714Y-54148285D01*
X156635476Y-53957809D01*
X156540238Y-53576857D01*
X156540238Y-53100666D01*
X156635476Y-52719714D01*
X156730714Y-52529238D01*
X156825952Y-52434000D01*
X157016428Y-52338761D01*
D13*
X131206001Y-67663001D02*
X129531001Y-67663001D01*
X131206001Y-67403001D02*
X131206001Y-67663001D01*
X133931001Y-67403001D02*
X131206001Y-67403001D01*
X136656001Y-67403001D02*
X136656001Y-67663001D01*
X133931001Y-67403001D02*
X136656001Y-67403001D01*
X131206001Y-72853001D02*
X131206001Y-72593001D01*
X133931001Y-72853001D02*
X131206001Y-72853001D01*
X136656001Y-72853001D02*
X136656001Y-72593001D01*
X133931001Y-72853001D02*
X136656001Y-72853001D01*
X151574000Y-76307000D02*
X151574000Y-71907000D01*
X155974000Y-76307000D02*
X151574000Y-76307000D01*
X155974000Y-71907000D02*
X155974000Y-76307000D01*
X151574000Y-71907000D02*
X155974000Y-71907000D01*
X151574000Y-68687000D02*
X151574000Y-64287000D01*
X155974000Y-68687000D02*
X151574000Y-68687000D01*
X155974000Y-64287000D02*
X155974000Y-68687000D01*
X151574000Y-64287000D02*
X155974000Y-64287000D01*
X147603000Y-72711748D02*
X147603000Y-73234252D01*
X149023000Y-72711748D02*
X149023000Y-73234252D01*
X147593000Y-68539748D02*
X147593000Y-69062252D01*
X149013000Y-68539748D02*
X149013000Y-69062252D01*
X143381000Y-69756064D02*
X143381000Y-68551936D01*
X141561000Y-69756064D02*
X141561000Y-68551936D01*
X141574748Y-74309000D02*
X142097252Y-74309000D01*
X141574748Y-72889000D02*
X142097252Y-72889000D01*
X135088748Y-66054000D02*
X135611252Y-66054000D01*
X135088748Y-64634000D02*
X135611252Y-64634000D01*
X125124000Y-67885748D02*
X125124000Y-68408252D01*
X126544000Y-67885748D02*
X126544000Y-68408252D01*
X137697000Y-64320748D02*
X137697000Y-64843252D01*
X139117000Y-64320748D02*
X139117000Y-64843252D01*
X111865748Y-80151000D02*
X112388252Y-80151000D01*
X111865748Y-78731000D02*
X112388252Y-78731000D01*
X105927936Y-80351000D02*
X107132064Y-80351000D01*
X105927936Y-78531000D02*
X107132064Y-78531000D01*
X108816000Y-61153000D02*
X108816000Y-50993000D01*
X101196000Y-61153000D02*
X108816000Y-61153000D01*
X101196000Y-50993000D02*
X101196000Y-61153000D01*
X108816000Y-50993000D02*
X101196000Y-50993000D01*
X107546000Y-50993000D02*
X107546000Y-61153000D01*
X108816000Y-72329000D02*
X108816000Y-62169000D01*
X101196000Y-72329000D02*
X108816000Y-72329000D01*
X101196000Y-62169000D02*
X101196000Y-72329000D01*
X108816000Y-62169000D02*
X101196000Y-62169000D01*
X107546000Y-62169000D02*
X107546000Y-72329000D01*
X121139000Y-70701000D02*
X121139000Y-72941000D01*
X121379000Y-70701000D02*
X121379000Y-72941000D01*
X121259000Y-70701000D02*
X121259000Y-72941000D01*
X125429000Y-71821000D02*
X124779000Y-71821000D01*
X119889000Y-71821000D02*
X120539000Y-71821000D01*
X124779000Y-70701000D02*
X120539000Y-70701000D01*
X124779000Y-72941000D02*
X124779000Y-70701000D01*
X120539000Y-72941000D02*
X124779000Y-72941000D01*
X120539000Y-70701000D02*
X120539000Y-72941000D01*
X116111000Y-79775000D02*
X116111000Y-78855000D01*
X118031000Y-79775000D02*
X118031000Y-78855000D01*
X119331000Y-84645000D02*
X118131000Y-84645000D01*
X119331000Y-79775000D02*
X119331000Y-84645000D01*
X114811000Y-84645000D02*
X114811000Y-79775000D01*
X116011000Y-84645000D02*
X114811000Y-84645000D01*
X119331000Y-79775000D02*
X118031000Y-79775000D01*
X116111000Y-79775000D02*
X114811000Y-79775000D01*
X121191000Y-79775000D02*
X121191000Y-78855000D01*
X123111000Y-79775000D02*
X123111000Y-78855000D01*
X124411000Y-84645000D02*
X123211000Y-84645000D01*
X124411000Y-79775000D02*
X124411000Y-84645000D01*
X119891000Y-84645000D02*
X119891000Y-79775000D01*
X121091000Y-84645000D02*
X119891000Y-84645000D01*
X124411000Y-79775000D02*
X123111000Y-79775000D01*
X121191000Y-79775000D02*
X119891000Y-79775000D01*
X131674252Y-64634000D02*
X131151748Y-64634000D01*
X131674252Y-66054000D02*
X131151748Y-66054000D01*
X133065748Y-75706000D02*
X133588252Y-75706000D01*
X133065748Y-74286000D02*
X133588252Y-74286000D01*
X127155999Y-67859749D02*
X127155999Y-68382253D01*
X128575999Y-67859749D02*
X128575999Y-68382253D01*
X121431000Y-75778748D02*
X121431000Y-76301252D01*
X122851000Y-75778748D02*
X122851000Y-76301252D01*
X111802000Y-75911252D02*
X111802000Y-75388748D01*
X110382000Y-75911252D02*
X110382000Y-75388748D01*
D10*
X133190095Y-68253380D02*
X133190095Y-69062904D01*
X133237714Y-69158142D01*
X133285333Y-69205761D01*
X133380571Y-69253380D01*
X133571047Y-69253380D01*
X133666285Y-69205761D01*
X133713904Y-69158142D01*
X133761523Y-69062904D01*
X133761523Y-68253380D01*
X134761523Y-69253380D02*
X134190095Y-69253380D01*
X134475809Y-69253380D02*
X134475809Y-68253380D01*
X134380571Y-68396238D01*
X134285333Y-68491476D01*
X134190095Y-68539095D01*
X152375095Y-76889380D02*
X152946523Y-76889380D01*
X152660809Y-77889380D02*
X152660809Y-76889380D01*
X153279857Y-77889380D02*
X153279857Y-76889380D01*
X153660809Y-76889380D01*
X153756047Y-76937000D01*
X153803666Y-76984619D01*
X153851285Y-77079857D01*
X153851285Y-77222714D01*
X153803666Y-77317952D01*
X153756047Y-77365571D01*
X153660809Y-77413190D01*
X153279857Y-77413190D01*
X154232238Y-76984619D02*
X154279857Y-76937000D01*
X154375095Y-76889380D01*
X154613190Y-76889380D01*
X154708428Y-76937000D01*
X154756047Y-76984619D01*
X154803666Y-77079857D01*
X154803666Y-77175095D01*
X154756047Y-77317952D01*
X154184619Y-77889380D01*
X154803666Y-77889380D01*
X152502095Y-69269380D02*
X153073523Y-69269380D01*
X152787809Y-70269380D02*
X152787809Y-69269380D01*
X153406857Y-70269380D02*
X153406857Y-69269380D01*
X153787809Y-69269380D01*
X153883047Y-69317000D01*
X153930666Y-69364619D01*
X153978285Y-69459857D01*
X153978285Y-69602714D01*
X153930666Y-69697952D01*
X153883047Y-69745571D01*
X153787809Y-69793190D01*
X153406857Y-69793190D01*
X154930666Y-70269380D02*
X154359238Y-70269380D01*
X154644952Y-70269380D02*
X154644952Y-69269380D01*
X154549714Y-69412238D01*
X154454476Y-69507476D01*
X154359238Y-69555095D01*
X150415380Y-73139666D02*
X149939190Y-73473000D01*
X150415380Y-73711095D02*
X149415380Y-73711095D01*
X149415380Y-73330142D01*
X149463000Y-73234904D01*
X149510619Y-73187285D01*
X149605857Y-73139666D01*
X149748714Y-73139666D01*
X149843952Y-73187285D01*
X149891571Y-73234904D01*
X149939190Y-73330142D01*
X149939190Y-73711095D01*
X150415380Y-72663476D02*
X150415380Y-72473000D01*
X150367761Y-72377761D01*
X150320142Y-72330142D01*
X150177285Y-72234904D01*
X149986809Y-72187285D01*
X149605857Y-72187285D01*
X149510619Y-72234904D01*
X149463000Y-72282523D01*
X149415380Y-72377761D01*
X149415380Y-72568238D01*
X149463000Y-72663476D01*
X149510619Y-72711095D01*
X149605857Y-72758714D01*
X149843952Y-72758714D01*
X149939190Y-72711095D01*
X149986809Y-72663476D01*
X150034428Y-72568238D01*
X150034428Y-72377761D01*
X149986809Y-72282523D01*
X149939190Y-72234904D01*
X149843952Y-72187285D01*
X150405380Y-68967666D02*
X149929190Y-69301000D01*
X150405380Y-69539095D02*
X149405380Y-69539095D01*
X149405380Y-69158142D01*
X149453000Y-69062904D01*
X149500619Y-69015285D01*
X149595857Y-68967666D01*
X149738714Y-68967666D01*
X149833952Y-69015285D01*
X149881571Y-69062904D01*
X149929190Y-69158142D01*
X149929190Y-69539095D01*
X149833952Y-68396238D02*
X149786333Y-68491476D01*
X149738714Y-68539095D01*
X149643476Y-68586714D01*
X149595857Y-68586714D01*
X149500619Y-68539095D01*
X149453000Y-68491476D01*
X149405380Y-68396238D01*
X149405380Y-68205761D01*
X149453000Y-68110523D01*
X149500619Y-68062904D01*
X149595857Y-68015285D01*
X149643476Y-68015285D01*
X149738714Y-68062904D01*
X149786333Y-68110523D01*
X149833952Y-68205761D01*
X149833952Y-68396238D01*
X149881571Y-68491476D01*
X149929190Y-68539095D01*
X150024428Y-68586714D01*
X150214904Y-68586714D01*
X150310142Y-68539095D01*
X150357761Y-68491476D01*
X150405380Y-68396238D01*
X150405380Y-68205761D01*
X150357761Y-68110523D01*
X150310142Y-68062904D01*
X150214904Y-68015285D01*
X150024428Y-68015285D01*
X149929190Y-68062904D01*
X149881571Y-68110523D01*
X149833952Y-68205761D01*
X144945380Y-69348666D02*
X144469190Y-69682000D01*
X144945380Y-69920095D02*
X143945380Y-69920095D01*
X143945380Y-69539142D01*
X143993000Y-69443904D01*
X144040619Y-69396285D01*
X144135857Y-69348666D01*
X144278714Y-69348666D01*
X144373952Y-69396285D01*
X144421571Y-69443904D01*
X144469190Y-69539142D01*
X144469190Y-69920095D01*
X143945380Y-69015333D02*
X143945380Y-68348666D01*
X144945380Y-68777238D01*
X141786333Y-75603380D02*
X141453000Y-75127190D01*
X141214904Y-75603380D02*
X141214904Y-74603380D01*
X141595857Y-74603380D01*
X141691095Y-74651000D01*
X141738714Y-74698619D01*
X141786333Y-74793857D01*
X141786333Y-74936714D01*
X141738714Y-75031952D01*
X141691095Y-75079571D01*
X141595857Y-75127190D01*
X141214904Y-75127190D01*
X142643476Y-74603380D02*
X142453000Y-74603380D01*
X142357761Y-74651000D01*
X142310142Y-74698619D01*
X142214904Y-74841476D01*
X142167285Y-75031952D01*
X142167285Y-75412904D01*
X142214904Y-75508142D01*
X142262523Y-75555761D01*
X142357761Y-75603380D01*
X142548238Y-75603380D01*
X142643476Y-75555761D01*
X142691095Y-75508142D01*
X142738714Y-75412904D01*
X142738714Y-75174809D01*
X142691095Y-75079571D01*
X142643476Y-75031952D01*
X142548238Y-74984333D01*
X142357761Y-74984333D01*
X142262523Y-75031952D01*
X142214904Y-75079571D01*
X142167285Y-75174809D01*
X135183333Y-64146380D02*
X134850000Y-63670190D01*
X134611904Y-64146380D02*
X134611904Y-63146380D01*
X134992857Y-63146380D01*
X135088095Y-63194000D01*
X135135714Y-63241619D01*
X135183333Y-63336857D01*
X135183333Y-63479714D01*
X135135714Y-63574952D01*
X135088095Y-63622571D01*
X134992857Y-63670190D01*
X134611904Y-63670190D01*
X136088095Y-63146380D02*
X135611904Y-63146380D01*
X135564285Y-63622571D01*
X135611904Y-63574952D01*
X135707142Y-63527333D01*
X135945238Y-63527333D01*
X136040476Y-63574952D01*
X136088095Y-63622571D01*
X136135714Y-63717809D01*
X136135714Y-63955904D01*
X136088095Y-64051142D01*
X136040476Y-64098761D01*
X135945238Y-64146380D01*
X135707142Y-64146380D01*
X135611904Y-64098761D01*
X135564285Y-64051142D01*
X125657333Y-65951380D02*
X125324000Y-65475190D01*
X125085904Y-65951380D02*
X125085904Y-64951380D01*
X125466857Y-64951380D01*
X125562095Y-64999000D01*
X125609714Y-65046619D01*
X125657333Y-65141857D01*
X125657333Y-65284714D01*
X125609714Y-65379952D01*
X125562095Y-65427571D01*
X125466857Y-65475190D01*
X125085904Y-65475190D01*
X126514476Y-65284714D02*
X126514476Y-65951380D01*
X126276380Y-64903761D02*
X126038285Y-65618047D01*
X126657333Y-65618047D01*
X140509380Y-64748666D02*
X140033190Y-65082000D01*
X140509380Y-65320095D02*
X139509380Y-65320095D01*
X139509380Y-64939142D01*
X139557000Y-64843904D01*
X139604619Y-64796285D01*
X139699857Y-64748666D01*
X139842714Y-64748666D01*
X139937952Y-64796285D01*
X139985571Y-64843904D01*
X140033190Y-64939142D01*
X140033190Y-65320095D01*
X139509380Y-64415333D02*
X139509380Y-63796285D01*
X139890333Y-64129619D01*
X139890333Y-63986761D01*
X139937952Y-63891523D01*
X139985571Y-63843904D01*
X140080809Y-63796285D01*
X140318904Y-63796285D01*
X140414142Y-63843904D01*
X140461761Y-63891523D01*
X140509380Y-63986761D01*
X140509380Y-64272476D01*
X140461761Y-64367714D01*
X140414142Y-64415333D01*
X111960333Y-81826380D02*
X111627000Y-81350190D01*
X111388904Y-81826380D02*
X111388904Y-80826380D01*
X111769857Y-80826380D01*
X111865095Y-80874000D01*
X111912714Y-80921619D01*
X111960333Y-81016857D01*
X111960333Y-81159714D01*
X111912714Y-81254952D01*
X111865095Y-81302571D01*
X111769857Y-81350190D01*
X111388904Y-81350190D01*
X112341285Y-80921619D02*
X112388904Y-80874000D01*
X112484142Y-80826380D01*
X112722238Y-80826380D01*
X112817476Y-80874000D01*
X112865095Y-80921619D01*
X112912714Y-81016857D01*
X112912714Y-81112095D01*
X112865095Y-81254952D01*
X112293666Y-81826380D01*
X112912714Y-81826380D01*
X106363333Y-81826380D02*
X106030000Y-81350190D01*
X105791904Y-81826380D02*
X105791904Y-80826380D01*
X106172857Y-80826380D01*
X106268095Y-80874000D01*
X106315714Y-80921619D01*
X106363333Y-81016857D01*
X106363333Y-81159714D01*
X106315714Y-81254952D01*
X106268095Y-81302571D01*
X106172857Y-81350190D01*
X105791904Y-81350190D01*
X107315714Y-81826380D02*
X106744285Y-81826380D01*
X107030000Y-81826380D02*
X107030000Y-80826380D01*
X106934761Y-80969238D01*
X106839523Y-81064476D01*
X106744285Y-81112095D01*
X101527380Y-56434333D02*
X102241666Y-56434333D01*
X102384523Y-56481952D01*
X102479761Y-56577190D01*
X102527380Y-56720047D01*
X102527380Y-56815285D01*
X101622619Y-56005761D02*
X101575000Y-55958142D01*
X101527380Y-55862904D01*
X101527380Y-55624809D01*
X101575000Y-55529571D01*
X101622619Y-55481952D01*
X101717857Y-55434333D01*
X101813095Y-55434333D01*
X101955952Y-55481952D01*
X102527380Y-56053380D01*
X102527380Y-55434333D01*
X101400380Y-67582333D02*
X102114666Y-67582333D01*
X102257523Y-67629952D01*
X102352761Y-67725190D01*
X102400380Y-67868047D01*
X102400380Y-67963285D01*
X102400380Y-66582333D02*
X102400380Y-67153761D01*
X102400380Y-66868047D02*
X101400380Y-66868047D01*
X101543238Y-66963285D01*
X101638476Y-67058523D01*
X101686095Y-67153761D01*
X118100904Y-74333380D02*
X118100904Y-73333380D01*
X118339000Y-73333380D01*
X118481857Y-73381000D01*
X118577095Y-73476238D01*
X118624714Y-73571476D01*
X118672333Y-73761952D01*
X118672333Y-73904809D01*
X118624714Y-74095285D01*
X118577095Y-74190523D01*
X118481857Y-74285761D01*
X118339000Y-74333380D01*
X118100904Y-74333380D01*
X119005666Y-73333380D02*
X119624714Y-73333380D01*
X119291380Y-73714333D01*
X119434238Y-73714333D01*
X119529476Y-73761952D01*
X119577095Y-73809571D01*
X119624714Y-73904809D01*
X119624714Y-74142904D01*
X119577095Y-74238142D01*
X119529476Y-74285761D01*
X119434238Y-74333380D01*
X119148523Y-74333380D01*
X119053285Y-74285761D01*
X119005666Y-74238142D01*
X116799095Y-72301380D02*
X116799095Y-71301380D01*
X117370523Y-72301380D02*
X116941952Y-71729952D01*
X117370523Y-71301380D02*
X116799095Y-71872809D01*
X116322904Y-82715380D02*
X116322904Y-81715380D01*
X116561000Y-81715380D01*
X116703857Y-81763000D01*
X116799095Y-81858238D01*
X116846714Y-81953476D01*
X116894333Y-82143952D01*
X116894333Y-82286809D01*
X116846714Y-82477285D01*
X116799095Y-82572523D01*
X116703857Y-82667761D01*
X116561000Y-82715380D01*
X116322904Y-82715380D01*
X117275285Y-81810619D02*
X117322904Y-81763000D01*
X117418142Y-81715380D01*
X117656238Y-81715380D01*
X117751476Y-81763000D01*
X117799095Y-81810619D01*
X117846714Y-81905857D01*
X117846714Y-82001095D01*
X117799095Y-82143952D01*
X117227666Y-82715380D01*
X117846714Y-82715380D01*
X121402904Y-82687380D02*
X121402904Y-81687380D01*
X121641000Y-81687380D01*
X121783857Y-81735000D01*
X121879095Y-81830238D01*
X121926714Y-81925476D01*
X121974333Y-82115952D01*
X121974333Y-82258809D01*
X121926714Y-82449285D01*
X121879095Y-82544523D01*
X121783857Y-82639761D01*
X121641000Y-82687380D01*
X121402904Y-82687380D01*
X122926714Y-82687380D02*
X122355285Y-82687380D01*
X122641000Y-82687380D02*
X122641000Y-81687380D01*
X122545761Y-81830238D01*
X122450523Y-81925476D01*
X122355285Y-81973095D01*
X131118333Y-64078142D02*
X131070714Y-64125761D01*
X130927857Y-64173380D01*
X130832619Y-64173380D01*
X130689761Y-64125761D01*
X130594523Y-64030523D01*
X130546904Y-63935285D01*
X130499285Y-63744809D01*
X130499285Y-63601952D01*
X130546904Y-63411476D01*
X130594523Y-63316238D01*
X130689761Y-63221000D01*
X130832619Y-63173380D01*
X130927857Y-63173380D01*
X131070714Y-63221000D01*
X131118333Y-63268619D01*
X132023095Y-63173380D02*
X131546904Y-63173380D01*
X131499285Y-63649571D01*
X131546904Y-63601952D01*
X131642142Y-63554333D01*
X131880238Y-63554333D01*
X131975476Y-63601952D01*
X132023095Y-63649571D01*
X132070714Y-63744809D01*
X132070714Y-63982904D01*
X132023095Y-64078142D01*
X131975476Y-64125761D01*
X131880238Y-64173380D01*
X131642142Y-64173380D01*
X131546904Y-64125761D01*
X131499285Y-64078142D01*
X133150333Y-77159142D02*
X133102714Y-77206761D01*
X132959857Y-77254380D01*
X132864619Y-77254380D01*
X132721761Y-77206761D01*
X132626523Y-77111523D01*
X132578904Y-77016285D01*
X132531285Y-76825809D01*
X132531285Y-76682952D01*
X132578904Y-76492476D01*
X132626523Y-76397238D01*
X132721761Y-76302000D01*
X132864619Y-76254380D01*
X132959857Y-76254380D01*
X133102714Y-76302000D01*
X133150333Y-76349619D01*
X134007476Y-76587714D02*
X134007476Y-77254380D01*
X133769380Y-76206761D02*
X133531285Y-76921047D01*
X134150333Y-76921047D01*
X127689333Y-65856142D02*
X127641714Y-65903761D01*
X127498857Y-65951380D01*
X127403619Y-65951380D01*
X127260761Y-65903761D01*
X127165523Y-65808523D01*
X127117904Y-65713285D01*
X127070285Y-65522809D01*
X127070285Y-65379952D01*
X127117904Y-65189476D01*
X127165523Y-65094238D01*
X127260761Y-64999000D01*
X127403619Y-64951380D01*
X127498857Y-64951380D01*
X127641714Y-64999000D01*
X127689333Y-65046619D01*
X128022666Y-64951380D02*
X128641714Y-64951380D01*
X128308380Y-65332333D01*
X128451238Y-65332333D01*
X128546476Y-65379952D01*
X128594095Y-65427571D01*
X128641714Y-65522809D01*
X128641714Y-65760904D01*
X128594095Y-65856142D01*
X128546476Y-65903761D01*
X128451238Y-65951380D01*
X128165523Y-65951380D01*
X128070285Y-65903761D01*
X128022666Y-65856142D01*
X124006333Y-76397142D02*
X123958714Y-76444761D01*
X123815857Y-76492380D01*
X123720619Y-76492380D01*
X123577761Y-76444761D01*
X123482523Y-76349523D01*
X123434904Y-76254285D01*
X123387285Y-76063809D01*
X123387285Y-75920952D01*
X123434904Y-75730476D01*
X123482523Y-75635238D01*
X123577761Y-75540000D01*
X123720619Y-75492380D01*
X123815857Y-75492380D01*
X123958714Y-75540000D01*
X124006333Y-75587619D01*
X124387285Y-75587619D02*
X124434904Y-75540000D01*
X124530142Y-75492380D01*
X124768238Y-75492380D01*
X124863476Y-75540000D01*
X124911095Y-75587619D01*
X124958714Y-75682857D01*
X124958714Y-75778095D01*
X124911095Y-75920952D01*
X124339666Y-76492380D01*
X124958714Y-76492380D01*
X112957333Y-76016142D02*
X112909714Y-76063761D01*
X112766857Y-76111380D01*
X112671619Y-76111380D01*
X112528761Y-76063761D01*
X112433523Y-75968523D01*
X112385904Y-75873285D01*
X112338285Y-75682809D01*
X112338285Y-75539952D01*
X112385904Y-75349476D01*
X112433523Y-75254238D01*
X112528761Y-75159000D01*
X112671619Y-75111380D01*
X112766857Y-75111380D01*
X112909714Y-75159000D01*
X112957333Y-75206619D01*
X113909714Y-76111380D02*
X113338285Y-76111380D01*
X113624000Y-76111380D02*
X113624000Y-75111380D01*
X113528761Y-75254238D01*
X113433523Y-75349476D01*
X113338285Y-75397095D01*
M02*
