G04 #@! TF.GenerationSoftware,KiCad,Pcbnew,(5.1.4)-1*
G04 #@! TF.CreationDate,2020-04-09T16:08:48+02:00*
G04 #@! TF.ProjectId,PIN_NiklasNachbau,50494e5f-4e69-46b6-9c61-734e61636862,rev?*
G04 #@! TF.SameCoordinates,Original*
G04 #@! TF.FileFunction,Copper,L2,Bot*
G04 #@! TF.FilePolarity,Positive*
%FSLAX46Y46*%
G04 Gerber Fmt 4.6, Leading zero omitted, Abs format (unit mm)*
G04 Created by KiCad (PCBNEW (5.1.4)-1) date 2020-04-09 16:08:48*
%MOMM*%
%LPD*%
G04 APERTURE LIST*
%ADD10C,3.000000*%
%ADD11R,3.000000X3.000000*%
%ADD12O,1.600000X1.600000*%
%ADD13R,1.600000X1.600000*%
%ADD14C,0.100000*%
%ADD15C,1.400000*%
%ADD16O,1.400000X1.700000*%
%ADD17C,2.000000*%
%ADD18C,0.800000*%
%ADD19C,0.250000*%
%ADD20C,1.000000*%
%ADD21C,0.254000*%
G04 APERTURE END LIST*
D10*
X105006000Y-53533000D03*
D11*
X105006000Y-58613000D03*
D10*
X105006000Y-64709000D03*
D11*
X105006000Y-69789000D03*
D12*
X126469000Y-71821000D03*
D13*
X118849000Y-71821000D03*
D14*
G36*
X117546226Y-78846200D02*
G01*
X117570417Y-78849788D01*
X117594139Y-78855730D01*
X117617165Y-78863969D01*
X117639272Y-78874425D01*
X117660248Y-78886998D01*
X117679891Y-78901566D01*
X117698011Y-78917989D01*
X117714434Y-78936109D01*
X117729002Y-78955752D01*
X117741575Y-78976728D01*
X117752031Y-78998835D01*
X117760270Y-79021861D01*
X117766212Y-79045583D01*
X117769800Y-79069774D01*
X117771000Y-79094200D01*
X117771000Y-80295800D01*
X117769800Y-80320226D01*
X117766212Y-80344417D01*
X117760270Y-80368139D01*
X117752031Y-80391165D01*
X117741575Y-80413272D01*
X117729002Y-80434248D01*
X117714434Y-80453891D01*
X117698011Y-80472011D01*
X117679891Y-80488434D01*
X117660248Y-80503002D01*
X117639272Y-80515575D01*
X117617165Y-80526031D01*
X117594139Y-80534270D01*
X117570417Y-80540212D01*
X117546226Y-80543800D01*
X117521800Y-80545000D01*
X116620200Y-80545000D01*
X116595774Y-80543800D01*
X116571583Y-80540212D01*
X116547861Y-80534270D01*
X116524835Y-80526031D01*
X116502728Y-80515575D01*
X116481752Y-80503002D01*
X116462109Y-80488434D01*
X116443989Y-80472011D01*
X116427566Y-80453891D01*
X116412998Y-80434248D01*
X116400425Y-80413272D01*
X116389969Y-80391165D01*
X116381730Y-80368139D01*
X116375788Y-80344417D01*
X116372200Y-80320226D01*
X116371000Y-80295800D01*
X116371000Y-79094200D01*
X116372200Y-79069774D01*
X116375788Y-79045583D01*
X116381730Y-79021861D01*
X116389969Y-78998835D01*
X116400425Y-78976728D01*
X116412998Y-78955752D01*
X116427566Y-78936109D01*
X116443989Y-78917989D01*
X116462109Y-78901566D01*
X116481752Y-78886998D01*
X116502728Y-78874425D01*
X116524835Y-78863969D01*
X116547861Y-78855730D01*
X116571583Y-78849788D01*
X116595774Y-78846200D01*
X116620200Y-78845000D01*
X117521800Y-78845000D01*
X117546226Y-78846200D01*
X117546226Y-78846200D01*
G37*
D15*
X117071000Y-79695000D03*
D16*
X117071000Y-84775000D03*
D14*
G36*
X122626226Y-78846200D02*
G01*
X122650417Y-78849788D01*
X122674139Y-78855730D01*
X122697165Y-78863969D01*
X122719272Y-78874425D01*
X122740248Y-78886998D01*
X122759891Y-78901566D01*
X122778011Y-78917989D01*
X122794434Y-78936109D01*
X122809002Y-78955752D01*
X122821575Y-78976728D01*
X122832031Y-78998835D01*
X122840270Y-79021861D01*
X122846212Y-79045583D01*
X122849800Y-79069774D01*
X122851000Y-79094200D01*
X122851000Y-80295800D01*
X122849800Y-80320226D01*
X122846212Y-80344417D01*
X122840270Y-80368139D01*
X122832031Y-80391165D01*
X122821575Y-80413272D01*
X122809002Y-80434248D01*
X122794434Y-80453891D01*
X122778011Y-80472011D01*
X122759891Y-80488434D01*
X122740248Y-80503002D01*
X122719272Y-80515575D01*
X122697165Y-80526031D01*
X122674139Y-80534270D01*
X122650417Y-80540212D01*
X122626226Y-80543800D01*
X122601800Y-80545000D01*
X121700200Y-80545000D01*
X121675774Y-80543800D01*
X121651583Y-80540212D01*
X121627861Y-80534270D01*
X121604835Y-80526031D01*
X121582728Y-80515575D01*
X121561752Y-80503002D01*
X121542109Y-80488434D01*
X121523989Y-80472011D01*
X121507566Y-80453891D01*
X121492998Y-80434248D01*
X121480425Y-80413272D01*
X121469969Y-80391165D01*
X121461730Y-80368139D01*
X121455788Y-80344417D01*
X121452200Y-80320226D01*
X121451000Y-80295800D01*
X121451000Y-79094200D01*
X121452200Y-79069774D01*
X121455788Y-79045583D01*
X121461730Y-79021861D01*
X121469969Y-78998835D01*
X121480425Y-78976728D01*
X121492998Y-78955752D01*
X121507566Y-78936109D01*
X121523989Y-78917989D01*
X121542109Y-78901566D01*
X121561752Y-78886998D01*
X121582728Y-78874425D01*
X121604835Y-78863969D01*
X121627861Y-78855730D01*
X121651583Y-78849788D01*
X121675774Y-78846200D01*
X121700200Y-78845000D01*
X122601800Y-78845000D01*
X122626226Y-78846200D01*
X122626226Y-78846200D01*
G37*
D15*
X122151000Y-79695000D03*
D16*
X122151000Y-84775000D03*
D17*
X135222000Y-68293000D03*
X128999000Y-74770000D03*
X110594000Y-53533000D03*
X110594000Y-64709000D03*
X111092000Y-72738000D03*
X118849000Y-69535000D03*
X117061000Y-86835000D03*
X122141000Y-86962000D03*
X153774000Y-77663000D03*
X136375000Y-74996000D03*
X148440000Y-76139000D03*
D18*
X133825000Y-69563000D03*
X132174000Y-67912000D03*
D19*
X133825000Y-69563000D02*
X133425001Y-69163001D01*
X133425001Y-69163001D02*
X132174000Y-67912000D01*
X132174000Y-67912000D02*
X132174000Y-67912000D01*
D20*
X134222001Y-67293001D02*
X134222001Y-60435001D01*
X135222000Y-68293000D02*
X134222001Y-67293001D01*
X132400000Y-58613000D02*
X105006000Y-58613000D01*
X134222001Y-60435001D02*
X132400000Y-58613000D01*
D21*
G36*
X103198786Y-52376962D02*
G01*
X103007980Y-52751745D01*
X102893956Y-53156551D01*
X102861098Y-53575824D01*
X102910666Y-53993451D01*
X103040757Y-54393383D01*
X103198786Y-54689038D01*
X103514347Y-54845048D01*
X104826395Y-53533000D01*
X104812253Y-53518858D01*
X104991858Y-53339253D01*
X105006000Y-53353395D01*
X105020143Y-53339253D01*
X105199748Y-53518858D01*
X105185605Y-53533000D01*
X106497653Y-54845048D01*
X106813214Y-54689038D01*
X107004020Y-54314255D01*
X107118044Y-53909449D01*
X107150902Y-53490176D01*
X107101334Y-53072549D01*
X106971243Y-52672617D01*
X106813214Y-52376962D01*
X106639339Y-52291000D01*
X157828000Y-52291000D01*
X157828000Y-87597000D01*
X102202000Y-87597000D01*
X102202000Y-85111294D01*
X115747759Y-85111294D01*
X115809529Y-85365866D01*
X115919777Y-85603496D01*
X116074265Y-85815051D01*
X116267057Y-85992402D01*
X116490744Y-86128734D01*
X116737671Y-86217716D01*
X116944000Y-86094374D01*
X116944000Y-84902000D01*
X117198000Y-84902000D01*
X117198000Y-86094374D01*
X117404329Y-86217716D01*
X117651256Y-86128734D01*
X117874943Y-85992402D01*
X118067735Y-85815051D01*
X118222223Y-85603496D01*
X118332471Y-85365866D01*
X118394241Y-85111294D01*
X120827759Y-85111294D01*
X120889529Y-85365866D01*
X120999777Y-85603496D01*
X121154265Y-85815051D01*
X121347057Y-85992402D01*
X121570744Y-86128734D01*
X121817671Y-86217716D01*
X122024000Y-86094374D01*
X122024000Y-84902000D01*
X122278000Y-84902000D01*
X122278000Y-86094374D01*
X122484329Y-86217716D01*
X122731256Y-86128734D01*
X122954943Y-85992402D01*
X123147735Y-85815051D01*
X123302223Y-85603496D01*
X123412471Y-85365866D01*
X123474241Y-85111294D01*
X123328343Y-84902000D01*
X122278000Y-84902000D01*
X122024000Y-84902000D01*
X120973657Y-84902000D01*
X120827759Y-85111294D01*
X118394241Y-85111294D01*
X118248343Y-84902000D01*
X117198000Y-84902000D01*
X116944000Y-84902000D01*
X115893657Y-84902000D01*
X115747759Y-85111294D01*
X102202000Y-85111294D01*
X102202000Y-84438706D01*
X115747759Y-84438706D01*
X115893657Y-84648000D01*
X116944000Y-84648000D01*
X116944000Y-83455626D01*
X117198000Y-83455626D01*
X117198000Y-84648000D01*
X118248343Y-84648000D01*
X118394241Y-84438706D01*
X120827759Y-84438706D01*
X120973657Y-84648000D01*
X122024000Y-84648000D01*
X122024000Y-83455626D01*
X122278000Y-83455626D01*
X122278000Y-84648000D01*
X123328343Y-84648000D01*
X123474241Y-84438706D01*
X123412471Y-84184134D01*
X123302223Y-83946504D01*
X123147735Y-83734949D01*
X122954943Y-83557598D01*
X122731256Y-83421266D01*
X122484329Y-83332284D01*
X122278000Y-83455626D01*
X122024000Y-83455626D01*
X121817671Y-83332284D01*
X121570744Y-83421266D01*
X121347057Y-83557598D01*
X121154265Y-83734949D01*
X120999777Y-83946504D01*
X120889529Y-84184134D01*
X120827759Y-84438706D01*
X118394241Y-84438706D01*
X118332471Y-84184134D01*
X118222223Y-83946504D01*
X118067735Y-83734949D01*
X117874943Y-83557598D01*
X117651256Y-83421266D01*
X117404329Y-83332284D01*
X117198000Y-83455626D01*
X116944000Y-83455626D01*
X116737671Y-83332284D01*
X116490744Y-83421266D01*
X116267057Y-83557598D01*
X116074265Y-83734949D01*
X115919777Y-83946504D01*
X115809529Y-84184134D01*
X115747759Y-84438706D01*
X102202000Y-84438706D01*
X102202000Y-79094200D01*
X115732928Y-79094200D01*
X115732928Y-80295800D01*
X115749977Y-80468898D01*
X115800468Y-80635344D01*
X115882460Y-80788742D01*
X115992804Y-80923196D01*
X116127258Y-81033540D01*
X116280656Y-81115532D01*
X116447102Y-81166023D01*
X116620200Y-81183072D01*
X117521800Y-81183072D01*
X117694898Y-81166023D01*
X117861344Y-81115532D01*
X118014742Y-81033540D01*
X118149196Y-80923196D01*
X118259540Y-80788742D01*
X118341532Y-80635344D01*
X118392023Y-80468898D01*
X118409072Y-80295800D01*
X118409072Y-79094200D01*
X120812928Y-79094200D01*
X120812928Y-80295800D01*
X120829977Y-80468898D01*
X120880468Y-80635344D01*
X120962460Y-80788742D01*
X121072804Y-80923196D01*
X121207258Y-81033540D01*
X121360656Y-81115532D01*
X121527102Y-81166023D01*
X121700200Y-81183072D01*
X122601800Y-81183072D01*
X122774898Y-81166023D01*
X122941344Y-81115532D01*
X123094742Y-81033540D01*
X123229196Y-80923196D01*
X123339540Y-80788742D01*
X123421532Y-80635344D01*
X123472023Y-80468898D01*
X123489072Y-80295800D01*
X123489072Y-79094200D01*
X123472023Y-78921102D01*
X123421532Y-78754656D01*
X123339540Y-78601258D01*
X123229196Y-78466804D01*
X123094742Y-78356460D01*
X122941344Y-78274468D01*
X122774898Y-78223977D01*
X122601800Y-78206928D01*
X121700200Y-78206928D01*
X121527102Y-78223977D01*
X121360656Y-78274468D01*
X121207258Y-78356460D01*
X121072804Y-78466804D01*
X120962460Y-78601258D01*
X120880468Y-78754656D01*
X120829977Y-78921102D01*
X120812928Y-79094200D01*
X118409072Y-79094200D01*
X118392023Y-78921102D01*
X118341532Y-78754656D01*
X118259540Y-78601258D01*
X118149196Y-78466804D01*
X118014742Y-78356460D01*
X117861344Y-78274468D01*
X117694898Y-78223977D01*
X117521800Y-78206928D01*
X116620200Y-78206928D01*
X116447102Y-78223977D01*
X116280656Y-78274468D01*
X116127258Y-78356460D01*
X115992804Y-78466804D01*
X115882460Y-78601258D01*
X115800468Y-78754656D01*
X115749977Y-78921102D01*
X115732928Y-79094200D01*
X102202000Y-79094200D01*
X102202000Y-72621000D01*
X117410928Y-72621000D01*
X117423188Y-72745482D01*
X117459498Y-72865180D01*
X117518463Y-72975494D01*
X117597815Y-73072185D01*
X117694506Y-73151537D01*
X117804820Y-73210502D01*
X117924518Y-73246812D01*
X118049000Y-73259072D01*
X118563250Y-73256000D01*
X118722000Y-73097250D01*
X118722000Y-71948000D01*
X118976000Y-71948000D01*
X118976000Y-73097250D01*
X119134750Y-73256000D01*
X119649000Y-73259072D01*
X119773482Y-73246812D01*
X119893180Y-73210502D01*
X120003494Y-73151537D01*
X120100185Y-73072185D01*
X120179537Y-72975494D01*
X120238502Y-72865180D01*
X120274812Y-72745482D01*
X120287072Y-72621000D01*
X120284000Y-72106750D01*
X120125250Y-71948000D01*
X118976000Y-71948000D01*
X118722000Y-71948000D01*
X117572750Y-71948000D01*
X117414000Y-72106750D01*
X117410928Y-72621000D01*
X102202000Y-72621000D01*
X102202000Y-68289000D01*
X102867928Y-68289000D01*
X102867928Y-71289000D01*
X102880188Y-71413482D01*
X102916498Y-71533180D01*
X102975463Y-71643494D01*
X103054815Y-71740185D01*
X103151506Y-71819537D01*
X103261820Y-71878502D01*
X103381518Y-71914812D01*
X103506000Y-71927072D01*
X106506000Y-71927072D01*
X106630482Y-71914812D01*
X106750180Y-71878502D01*
X106857756Y-71821000D01*
X125027057Y-71821000D01*
X125054764Y-72102309D01*
X125136818Y-72372808D01*
X125270068Y-72622101D01*
X125449392Y-72840608D01*
X125667899Y-73019932D01*
X125917192Y-73153182D01*
X126187691Y-73235236D01*
X126398508Y-73256000D01*
X126539492Y-73256000D01*
X126750309Y-73235236D01*
X127020808Y-73153182D01*
X127270101Y-73019932D01*
X127488608Y-72840608D01*
X127667932Y-72622101D01*
X127801182Y-72372808D01*
X127883236Y-72102309D01*
X127910943Y-71821000D01*
X127883236Y-71539691D01*
X127801182Y-71269192D01*
X127667932Y-71019899D01*
X127488608Y-70801392D01*
X127270101Y-70622068D01*
X127020808Y-70488818D01*
X126750309Y-70406764D01*
X126539492Y-70386000D01*
X126398508Y-70386000D01*
X126187691Y-70406764D01*
X125917192Y-70488818D01*
X125667899Y-70622068D01*
X125449392Y-70801392D01*
X125270068Y-71019899D01*
X125136818Y-71269192D01*
X125054764Y-71539691D01*
X125027057Y-71821000D01*
X106857756Y-71821000D01*
X106860494Y-71819537D01*
X106957185Y-71740185D01*
X107036537Y-71643494D01*
X107095502Y-71533180D01*
X107131812Y-71413482D01*
X107144072Y-71289000D01*
X107144072Y-71021000D01*
X117410928Y-71021000D01*
X117414000Y-71535250D01*
X117572750Y-71694000D01*
X118722000Y-71694000D01*
X118722000Y-70544750D01*
X118976000Y-70544750D01*
X118976000Y-71694000D01*
X120125250Y-71694000D01*
X120284000Y-71535250D01*
X120287072Y-71021000D01*
X120274812Y-70896518D01*
X120238502Y-70776820D01*
X120179537Y-70666506D01*
X120100185Y-70569815D01*
X120003494Y-70490463D01*
X119893180Y-70431498D01*
X119773482Y-70395188D01*
X119649000Y-70382928D01*
X119134750Y-70386000D01*
X118976000Y-70544750D01*
X118722000Y-70544750D01*
X118563250Y-70386000D01*
X118049000Y-70382928D01*
X117924518Y-70395188D01*
X117804820Y-70431498D01*
X117694506Y-70490463D01*
X117597815Y-70569815D01*
X117518463Y-70666506D01*
X117459498Y-70776820D01*
X117423188Y-70896518D01*
X117410928Y-71021000D01*
X107144072Y-71021000D01*
X107144072Y-68289000D01*
X107131812Y-68164518D01*
X107095502Y-68044820D01*
X107036537Y-67934506D01*
X106957185Y-67837815D01*
X106860494Y-67758463D01*
X106750180Y-67699498D01*
X106630482Y-67663188D01*
X106506000Y-67650928D01*
X103506000Y-67650928D01*
X103381518Y-67663188D01*
X103261820Y-67699498D01*
X103151506Y-67758463D01*
X103054815Y-67837815D01*
X102975463Y-67934506D01*
X102916498Y-68044820D01*
X102880188Y-68164518D01*
X102867928Y-68289000D01*
X102202000Y-68289000D01*
X102202000Y-66200653D01*
X103693952Y-66200653D01*
X103849962Y-66516214D01*
X104224745Y-66707020D01*
X104629551Y-66821044D01*
X105048824Y-66853902D01*
X105466451Y-66804334D01*
X105866383Y-66674243D01*
X106162038Y-66516214D01*
X106318048Y-66200653D01*
X105006000Y-64888605D01*
X103693952Y-66200653D01*
X102202000Y-66200653D01*
X102202000Y-64751824D01*
X102861098Y-64751824D01*
X102910666Y-65169451D01*
X103040757Y-65569383D01*
X103198786Y-65865038D01*
X103514347Y-66021048D01*
X104826395Y-64709000D01*
X105185605Y-64709000D01*
X106497653Y-66021048D01*
X106813214Y-65865038D01*
X107004020Y-65490255D01*
X107118044Y-65085449D01*
X107150902Y-64666176D01*
X107101334Y-64248549D01*
X106971243Y-63848617D01*
X106813214Y-63552962D01*
X106497653Y-63396952D01*
X105185605Y-64709000D01*
X104826395Y-64709000D01*
X103514347Y-63396952D01*
X103198786Y-63552962D01*
X103007980Y-63927745D01*
X102893956Y-64332551D01*
X102861098Y-64751824D01*
X102202000Y-64751824D01*
X102202000Y-63217347D01*
X103693952Y-63217347D01*
X105006000Y-64529395D01*
X106318048Y-63217347D01*
X106162038Y-62901786D01*
X105787255Y-62710980D01*
X105382449Y-62596956D01*
X104963176Y-62564098D01*
X104545549Y-62613666D01*
X104145617Y-62743757D01*
X103849962Y-62901786D01*
X103693952Y-63217347D01*
X102202000Y-63217347D01*
X102202000Y-57113000D01*
X102867928Y-57113000D01*
X102867928Y-60113000D01*
X102880188Y-60237482D01*
X102916498Y-60357180D01*
X102975463Y-60467494D01*
X103054815Y-60564185D01*
X103151506Y-60643537D01*
X103261820Y-60702502D01*
X103381518Y-60738812D01*
X103506000Y-60751072D01*
X106506000Y-60751072D01*
X106630482Y-60738812D01*
X106750180Y-60702502D01*
X106860494Y-60643537D01*
X106957185Y-60564185D01*
X107036537Y-60467494D01*
X107095502Y-60357180D01*
X107131812Y-60237482D01*
X107144072Y-60113000D01*
X107144072Y-59748000D01*
X131929869Y-59748000D01*
X133087002Y-60905135D01*
X133087001Y-67237249D01*
X133081510Y-67293001D01*
X133087001Y-67348752D01*
X133095121Y-67431198D01*
X133091205Y-67421744D01*
X132977937Y-67252226D01*
X132833774Y-67108063D01*
X132664256Y-66994795D01*
X132475898Y-66916774D01*
X132275939Y-66877000D01*
X132072061Y-66877000D01*
X131872102Y-66916774D01*
X131683744Y-66994795D01*
X131514226Y-67108063D01*
X131370063Y-67252226D01*
X131256795Y-67421744D01*
X131178774Y-67610102D01*
X131139000Y-67810061D01*
X131139000Y-68013939D01*
X131178774Y-68213898D01*
X131256795Y-68402256D01*
X131370063Y-68571774D01*
X131514226Y-68715937D01*
X131683744Y-68829205D01*
X131872102Y-68907226D01*
X132072061Y-68947000D01*
X132134199Y-68947000D01*
X132790000Y-69602802D01*
X132790000Y-69664939D01*
X132829774Y-69864898D01*
X132907795Y-70053256D01*
X133021063Y-70222774D01*
X133165226Y-70366937D01*
X133334744Y-70480205D01*
X133523102Y-70558226D01*
X133723061Y-70598000D01*
X133926939Y-70598000D01*
X134126898Y-70558226D01*
X134315256Y-70480205D01*
X134484774Y-70366937D01*
X134628937Y-70222774D01*
X134742205Y-70053256D01*
X134814403Y-69878956D01*
X135060967Y-69928000D01*
X135383033Y-69928000D01*
X135698912Y-69865168D01*
X135996463Y-69741918D01*
X136264252Y-69562987D01*
X136491987Y-69335252D01*
X136670918Y-69067463D01*
X136794168Y-68769912D01*
X136857000Y-68454033D01*
X136857000Y-68131967D01*
X136794168Y-67816088D01*
X136670918Y-67518537D01*
X136491987Y-67250748D01*
X136264252Y-67023013D01*
X135996463Y-66844082D01*
X135698912Y-66720832D01*
X135383033Y-66658000D01*
X135357001Y-66658000D01*
X135357001Y-60490753D01*
X135362492Y-60435001D01*
X135340578Y-60212502D01*
X135275677Y-59998554D01*
X135170285Y-59801378D01*
X135063990Y-59671857D01*
X135063988Y-59671855D01*
X135028450Y-59628552D01*
X134985147Y-59593014D01*
X133241995Y-57849864D01*
X133206449Y-57806551D01*
X133033623Y-57664716D01*
X132836447Y-57559324D01*
X132622499Y-57494423D01*
X132455752Y-57478000D01*
X132455751Y-57478000D01*
X132400000Y-57472509D01*
X132344249Y-57478000D01*
X107144072Y-57478000D01*
X107144072Y-57113000D01*
X107131812Y-56988518D01*
X107095502Y-56868820D01*
X107036537Y-56758506D01*
X106957185Y-56661815D01*
X106860494Y-56582463D01*
X106750180Y-56523498D01*
X106630482Y-56487188D01*
X106506000Y-56474928D01*
X103506000Y-56474928D01*
X103381518Y-56487188D01*
X103261820Y-56523498D01*
X103151506Y-56582463D01*
X103054815Y-56661815D01*
X102975463Y-56758506D01*
X102916498Y-56868820D01*
X102880188Y-56988518D01*
X102867928Y-57113000D01*
X102202000Y-57113000D01*
X102202000Y-55024653D01*
X103693952Y-55024653D01*
X103849962Y-55340214D01*
X104224745Y-55531020D01*
X104629551Y-55645044D01*
X105048824Y-55677902D01*
X105466451Y-55628334D01*
X105866383Y-55498243D01*
X106162038Y-55340214D01*
X106318048Y-55024653D01*
X105006000Y-53712605D01*
X103693952Y-55024653D01*
X102202000Y-55024653D01*
X102202000Y-52291000D01*
X103372661Y-52291000D01*
X103198786Y-52376962D01*
X103198786Y-52376962D01*
G37*
X103198786Y-52376962D02*
X103007980Y-52751745D01*
X102893956Y-53156551D01*
X102861098Y-53575824D01*
X102910666Y-53993451D01*
X103040757Y-54393383D01*
X103198786Y-54689038D01*
X103514347Y-54845048D01*
X104826395Y-53533000D01*
X104812253Y-53518858D01*
X104991858Y-53339253D01*
X105006000Y-53353395D01*
X105020143Y-53339253D01*
X105199748Y-53518858D01*
X105185605Y-53533000D01*
X106497653Y-54845048D01*
X106813214Y-54689038D01*
X107004020Y-54314255D01*
X107118044Y-53909449D01*
X107150902Y-53490176D01*
X107101334Y-53072549D01*
X106971243Y-52672617D01*
X106813214Y-52376962D01*
X106639339Y-52291000D01*
X157828000Y-52291000D01*
X157828000Y-87597000D01*
X102202000Y-87597000D01*
X102202000Y-85111294D01*
X115747759Y-85111294D01*
X115809529Y-85365866D01*
X115919777Y-85603496D01*
X116074265Y-85815051D01*
X116267057Y-85992402D01*
X116490744Y-86128734D01*
X116737671Y-86217716D01*
X116944000Y-86094374D01*
X116944000Y-84902000D01*
X117198000Y-84902000D01*
X117198000Y-86094374D01*
X117404329Y-86217716D01*
X117651256Y-86128734D01*
X117874943Y-85992402D01*
X118067735Y-85815051D01*
X118222223Y-85603496D01*
X118332471Y-85365866D01*
X118394241Y-85111294D01*
X120827759Y-85111294D01*
X120889529Y-85365866D01*
X120999777Y-85603496D01*
X121154265Y-85815051D01*
X121347057Y-85992402D01*
X121570744Y-86128734D01*
X121817671Y-86217716D01*
X122024000Y-86094374D01*
X122024000Y-84902000D01*
X122278000Y-84902000D01*
X122278000Y-86094374D01*
X122484329Y-86217716D01*
X122731256Y-86128734D01*
X122954943Y-85992402D01*
X123147735Y-85815051D01*
X123302223Y-85603496D01*
X123412471Y-85365866D01*
X123474241Y-85111294D01*
X123328343Y-84902000D01*
X122278000Y-84902000D01*
X122024000Y-84902000D01*
X120973657Y-84902000D01*
X120827759Y-85111294D01*
X118394241Y-85111294D01*
X118248343Y-84902000D01*
X117198000Y-84902000D01*
X116944000Y-84902000D01*
X115893657Y-84902000D01*
X115747759Y-85111294D01*
X102202000Y-85111294D01*
X102202000Y-84438706D01*
X115747759Y-84438706D01*
X115893657Y-84648000D01*
X116944000Y-84648000D01*
X116944000Y-83455626D01*
X117198000Y-83455626D01*
X117198000Y-84648000D01*
X118248343Y-84648000D01*
X118394241Y-84438706D01*
X120827759Y-84438706D01*
X120973657Y-84648000D01*
X122024000Y-84648000D01*
X122024000Y-83455626D01*
X122278000Y-83455626D01*
X122278000Y-84648000D01*
X123328343Y-84648000D01*
X123474241Y-84438706D01*
X123412471Y-84184134D01*
X123302223Y-83946504D01*
X123147735Y-83734949D01*
X122954943Y-83557598D01*
X122731256Y-83421266D01*
X122484329Y-83332284D01*
X122278000Y-83455626D01*
X122024000Y-83455626D01*
X121817671Y-83332284D01*
X121570744Y-83421266D01*
X121347057Y-83557598D01*
X121154265Y-83734949D01*
X120999777Y-83946504D01*
X120889529Y-84184134D01*
X120827759Y-84438706D01*
X118394241Y-84438706D01*
X118332471Y-84184134D01*
X118222223Y-83946504D01*
X118067735Y-83734949D01*
X117874943Y-83557598D01*
X117651256Y-83421266D01*
X117404329Y-83332284D01*
X117198000Y-83455626D01*
X116944000Y-83455626D01*
X116737671Y-83332284D01*
X116490744Y-83421266D01*
X116267057Y-83557598D01*
X116074265Y-83734949D01*
X115919777Y-83946504D01*
X115809529Y-84184134D01*
X115747759Y-84438706D01*
X102202000Y-84438706D01*
X102202000Y-79094200D01*
X115732928Y-79094200D01*
X115732928Y-80295800D01*
X115749977Y-80468898D01*
X115800468Y-80635344D01*
X115882460Y-80788742D01*
X115992804Y-80923196D01*
X116127258Y-81033540D01*
X116280656Y-81115532D01*
X116447102Y-81166023D01*
X116620200Y-81183072D01*
X117521800Y-81183072D01*
X117694898Y-81166023D01*
X117861344Y-81115532D01*
X118014742Y-81033540D01*
X118149196Y-80923196D01*
X118259540Y-80788742D01*
X118341532Y-80635344D01*
X118392023Y-80468898D01*
X118409072Y-80295800D01*
X118409072Y-79094200D01*
X120812928Y-79094200D01*
X120812928Y-80295800D01*
X120829977Y-80468898D01*
X120880468Y-80635344D01*
X120962460Y-80788742D01*
X121072804Y-80923196D01*
X121207258Y-81033540D01*
X121360656Y-81115532D01*
X121527102Y-81166023D01*
X121700200Y-81183072D01*
X122601800Y-81183072D01*
X122774898Y-81166023D01*
X122941344Y-81115532D01*
X123094742Y-81033540D01*
X123229196Y-80923196D01*
X123339540Y-80788742D01*
X123421532Y-80635344D01*
X123472023Y-80468898D01*
X123489072Y-80295800D01*
X123489072Y-79094200D01*
X123472023Y-78921102D01*
X123421532Y-78754656D01*
X123339540Y-78601258D01*
X123229196Y-78466804D01*
X123094742Y-78356460D01*
X122941344Y-78274468D01*
X122774898Y-78223977D01*
X122601800Y-78206928D01*
X121700200Y-78206928D01*
X121527102Y-78223977D01*
X121360656Y-78274468D01*
X121207258Y-78356460D01*
X121072804Y-78466804D01*
X120962460Y-78601258D01*
X120880468Y-78754656D01*
X120829977Y-78921102D01*
X120812928Y-79094200D01*
X118409072Y-79094200D01*
X118392023Y-78921102D01*
X118341532Y-78754656D01*
X118259540Y-78601258D01*
X118149196Y-78466804D01*
X118014742Y-78356460D01*
X117861344Y-78274468D01*
X117694898Y-78223977D01*
X117521800Y-78206928D01*
X116620200Y-78206928D01*
X116447102Y-78223977D01*
X116280656Y-78274468D01*
X116127258Y-78356460D01*
X115992804Y-78466804D01*
X115882460Y-78601258D01*
X115800468Y-78754656D01*
X115749977Y-78921102D01*
X115732928Y-79094200D01*
X102202000Y-79094200D01*
X102202000Y-72621000D01*
X117410928Y-72621000D01*
X117423188Y-72745482D01*
X117459498Y-72865180D01*
X117518463Y-72975494D01*
X117597815Y-73072185D01*
X117694506Y-73151537D01*
X117804820Y-73210502D01*
X117924518Y-73246812D01*
X118049000Y-73259072D01*
X118563250Y-73256000D01*
X118722000Y-73097250D01*
X118722000Y-71948000D01*
X118976000Y-71948000D01*
X118976000Y-73097250D01*
X119134750Y-73256000D01*
X119649000Y-73259072D01*
X119773482Y-73246812D01*
X119893180Y-73210502D01*
X120003494Y-73151537D01*
X120100185Y-73072185D01*
X120179537Y-72975494D01*
X120238502Y-72865180D01*
X120274812Y-72745482D01*
X120287072Y-72621000D01*
X120284000Y-72106750D01*
X120125250Y-71948000D01*
X118976000Y-71948000D01*
X118722000Y-71948000D01*
X117572750Y-71948000D01*
X117414000Y-72106750D01*
X117410928Y-72621000D01*
X102202000Y-72621000D01*
X102202000Y-68289000D01*
X102867928Y-68289000D01*
X102867928Y-71289000D01*
X102880188Y-71413482D01*
X102916498Y-71533180D01*
X102975463Y-71643494D01*
X103054815Y-71740185D01*
X103151506Y-71819537D01*
X103261820Y-71878502D01*
X103381518Y-71914812D01*
X103506000Y-71927072D01*
X106506000Y-71927072D01*
X106630482Y-71914812D01*
X106750180Y-71878502D01*
X106857756Y-71821000D01*
X125027057Y-71821000D01*
X125054764Y-72102309D01*
X125136818Y-72372808D01*
X125270068Y-72622101D01*
X125449392Y-72840608D01*
X125667899Y-73019932D01*
X125917192Y-73153182D01*
X126187691Y-73235236D01*
X126398508Y-73256000D01*
X126539492Y-73256000D01*
X126750309Y-73235236D01*
X127020808Y-73153182D01*
X127270101Y-73019932D01*
X127488608Y-72840608D01*
X127667932Y-72622101D01*
X127801182Y-72372808D01*
X127883236Y-72102309D01*
X127910943Y-71821000D01*
X127883236Y-71539691D01*
X127801182Y-71269192D01*
X127667932Y-71019899D01*
X127488608Y-70801392D01*
X127270101Y-70622068D01*
X127020808Y-70488818D01*
X126750309Y-70406764D01*
X126539492Y-70386000D01*
X126398508Y-70386000D01*
X126187691Y-70406764D01*
X125917192Y-70488818D01*
X125667899Y-70622068D01*
X125449392Y-70801392D01*
X125270068Y-71019899D01*
X125136818Y-71269192D01*
X125054764Y-71539691D01*
X125027057Y-71821000D01*
X106857756Y-71821000D01*
X106860494Y-71819537D01*
X106957185Y-71740185D01*
X107036537Y-71643494D01*
X107095502Y-71533180D01*
X107131812Y-71413482D01*
X107144072Y-71289000D01*
X107144072Y-71021000D01*
X117410928Y-71021000D01*
X117414000Y-71535250D01*
X117572750Y-71694000D01*
X118722000Y-71694000D01*
X118722000Y-70544750D01*
X118976000Y-70544750D01*
X118976000Y-71694000D01*
X120125250Y-71694000D01*
X120284000Y-71535250D01*
X120287072Y-71021000D01*
X120274812Y-70896518D01*
X120238502Y-70776820D01*
X120179537Y-70666506D01*
X120100185Y-70569815D01*
X120003494Y-70490463D01*
X119893180Y-70431498D01*
X119773482Y-70395188D01*
X119649000Y-70382928D01*
X119134750Y-70386000D01*
X118976000Y-70544750D01*
X118722000Y-70544750D01*
X118563250Y-70386000D01*
X118049000Y-70382928D01*
X117924518Y-70395188D01*
X117804820Y-70431498D01*
X117694506Y-70490463D01*
X117597815Y-70569815D01*
X117518463Y-70666506D01*
X117459498Y-70776820D01*
X117423188Y-70896518D01*
X117410928Y-71021000D01*
X107144072Y-71021000D01*
X107144072Y-68289000D01*
X107131812Y-68164518D01*
X107095502Y-68044820D01*
X107036537Y-67934506D01*
X106957185Y-67837815D01*
X106860494Y-67758463D01*
X106750180Y-67699498D01*
X106630482Y-67663188D01*
X106506000Y-67650928D01*
X103506000Y-67650928D01*
X103381518Y-67663188D01*
X103261820Y-67699498D01*
X103151506Y-67758463D01*
X103054815Y-67837815D01*
X102975463Y-67934506D01*
X102916498Y-68044820D01*
X102880188Y-68164518D01*
X102867928Y-68289000D01*
X102202000Y-68289000D01*
X102202000Y-66200653D01*
X103693952Y-66200653D01*
X103849962Y-66516214D01*
X104224745Y-66707020D01*
X104629551Y-66821044D01*
X105048824Y-66853902D01*
X105466451Y-66804334D01*
X105866383Y-66674243D01*
X106162038Y-66516214D01*
X106318048Y-66200653D01*
X105006000Y-64888605D01*
X103693952Y-66200653D01*
X102202000Y-66200653D01*
X102202000Y-64751824D01*
X102861098Y-64751824D01*
X102910666Y-65169451D01*
X103040757Y-65569383D01*
X103198786Y-65865038D01*
X103514347Y-66021048D01*
X104826395Y-64709000D01*
X105185605Y-64709000D01*
X106497653Y-66021048D01*
X106813214Y-65865038D01*
X107004020Y-65490255D01*
X107118044Y-65085449D01*
X107150902Y-64666176D01*
X107101334Y-64248549D01*
X106971243Y-63848617D01*
X106813214Y-63552962D01*
X106497653Y-63396952D01*
X105185605Y-64709000D01*
X104826395Y-64709000D01*
X103514347Y-63396952D01*
X103198786Y-63552962D01*
X103007980Y-63927745D01*
X102893956Y-64332551D01*
X102861098Y-64751824D01*
X102202000Y-64751824D01*
X102202000Y-63217347D01*
X103693952Y-63217347D01*
X105006000Y-64529395D01*
X106318048Y-63217347D01*
X106162038Y-62901786D01*
X105787255Y-62710980D01*
X105382449Y-62596956D01*
X104963176Y-62564098D01*
X104545549Y-62613666D01*
X104145617Y-62743757D01*
X103849962Y-62901786D01*
X103693952Y-63217347D01*
X102202000Y-63217347D01*
X102202000Y-57113000D01*
X102867928Y-57113000D01*
X102867928Y-60113000D01*
X102880188Y-60237482D01*
X102916498Y-60357180D01*
X102975463Y-60467494D01*
X103054815Y-60564185D01*
X103151506Y-60643537D01*
X103261820Y-60702502D01*
X103381518Y-60738812D01*
X103506000Y-60751072D01*
X106506000Y-60751072D01*
X106630482Y-60738812D01*
X106750180Y-60702502D01*
X106860494Y-60643537D01*
X106957185Y-60564185D01*
X107036537Y-60467494D01*
X107095502Y-60357180D01*
X107131812Y-60237482D01*
X107144072Y-60113000D01*
X107144072Y-59748000D01*
X131929869Y-59748000D01*
X133087002Y-60905135D01*
X133087001Y-67237249D01*
X133081510Y-67293001D01*
X133087001Y-67348752D01*
X133095121Y-67431198D01*
X133091205Y-67421744D01*
X132977937Y-67252226D01*
X132833774Y-67108063D01*
X132664256Y-66994795D01*
X132475898Y-66916774D01*
X132275939Y-66877000D01*
X132072061Y-66877000D01*
X131872102Y-66916774D01*
X131683744Y-66994795D01*
X131514226Y-67108063D01*
X131370063Y-67252226D01*
X131256795Y-67421744D01*
X131178774Y-67610102D01*
X131139000Y-67810061D01*
X131139000Y-68013939D01*
X131178774Y-68213898D01*
X131256795Y-68402256D01*
X131370063Y-68571774D01*
X131514226Y-68715937D01*
X131683744Y-68829205D01*
X131872102Y-68907226D01*
X132072061Y-68947000D01*
X132134199Y-68947000D01*
X132790000Y-69602802D01*
X132790000Y-69664939D01*
X132829774Y-69864898D01*
X132907795Y-70053256D01*
X133021063Y-70222774D01*
X133165226Y-70366937D01*
X133334744Y-70480205D01*
X133523102Y-70558226D01*
X133723061Y-70598000D01*
X133926939Y-70598000D01*
X134126898Y-70558226D01*
X134315256Y-70480205D01*
X134484774Y-70366937D01*
X134628937Y-70222774D01*
X134742205Y-70053256D01*
X134814403Y-69878956D01*
X135060967Y-69928000D01*
X135383033Y-69928000D01*
X135698912Y-69865168D01*
X135996463Y-69741918D01*
X136264252Y-69562987D01*
X136491987Y-69335252D01*
X136670918Y-69067463D01*
X136794168Y-68769912D01*
X136857000Y-68454033D01*
X136857000Y-68131967D01*
X136794168Y-67816088D01*
X136670918Y-67518537D01*
X136491987Y-67250748D01*
X136264252Y-67023013D01*
X135996463Y-66844082D01*
X135698912Y-66720832D01*
X135383033Y-66658000D01*
X135357001Y-66658000D01*
X135357001Y-60490753D01*
X135362492Y-60435001D01*
X135340578Y-60212502D01*
X135275677Y-59998554D01*
X135170285Y-59801378D01*
X135063990Y-59671857D01*
X135063988Y-59671855D01*
X135028450Y-59628552D01*
X134985147Y-59593014D01*
X133241995Y-57849864D01*
X133206449Y-57806551D01*
X133033623Y-57664716D01*
X132836447Y-57559324D01*
X132622499Y-57494423D01*
X132455752Y-57478000D01*
X132455751Y-57478000D01*
X132400000Y-57472509D01*
X132344249Y-57478000D01*
X107144072Y-57478000D01*
X107144072Y-57113000D01*
X107131812Y-56988518D01*
X107095502Y-56868820D01*
X107036537Y-56758506D01*
X106957185Y-56661815D01*
X106860494Y-56582463D01*
X106750180Y-56523498D01*
X106630482Y-56487188D01*
X106506000Y-56474928D01*
X103506000Y-56474928D01*
X103381518Y-56487188D01*
X103261820Y-56523498D01*
X103151506Y-56582463D01*
X103054815Y-56661815D01*
X102975463Y-56758506D01*
X102916498Y-56868820D01*
X102880188Y-56988518D01*
X102867928Y-57113000D01*
X102202000Y-57113000D01*
X102202000Y-55024653D01*
X103693952Y-55024653D01*
X103849962Y-55340214D01*
X104224745Y-55531020D01*
X104629551Y-55645044D01*
X105048824Y-55677902D01*
X105466451Y-55628334D01*
X105866383Y-55498243D01*
X106162038Y-55340214D01*
X106318048Y-55024653D01*
X105006000Y-53712605D01*
X103693952Y-55024653D01*
X102202000Y-55024653D01*
X102202000Y-52291000D01*
X103372661Y-52291000D01*
X103198786Y-52376962D01*
M02*
